<?xml version="1.0" encoding="UTF-8" standalone="no"?>
<!DOCTYPE svg PUBLIC "-//W3C//DTD SVG 1.1//EN"
 "http://www.w3.org/Graphics/SVG/1.1/DTD/svg11.dtd">
<!-- Generated by graphviz version 12.0.0 (20240704.0754)
 -->
<!-- Title: State Pages: 1 -->
<svg width="1432pt" height="187pt"
 viewBox="0.00 0.00 1431.53 186.84" xmlns="http://www.w3.org/2000/svg" xmlns:xlink="http://www.w3.org/1999/xlink">
<g id="graph0" class="graph" transform="scale(1 1) rotate(0) translate(4 182.84)">
<title>State</title>
<polygon fill="white" stroke="none" points="-4,4 -4,-182.84 1427.53,-182.84 1427.53,4 -4,4"/>
<!-- STANDBY -->
<g id="node1" class="node">
<title>STANDBY</title>
<ellipse fill="none" stroke="black" cx="60.01" cy="-67.88" rx="60.01" ry="60.01"/>
<text text-anchor="middle" x="60.01" y="-62.98" font-family="Times,serif" font-size="14.00">STANDBY</text>
</g>
<!-- CHECK_WATER_LEVEL -->
<g id="node2" class="node">
<title>CHECK_WATER_LEVEL</title>
<ellipse fill="none" stroke="black" cx="281.81" cy="-128.88" rx="48.79" ry="48.79"/>
<text text-anchor="middle" x="281.81" y="-140.78" font-family="Times,serif" font-size="14.00">CHECK</text>
<text text-anchor="middle" x="281.81" y="-123.98" font-family="Times,serif" font-size="14.00">WATER</text>
<text text-anchor="middle" x="281.81" y="-107.18" font-family="Times,serif" font-size="14.00">LEVEL</text>
</g>
<!-- STANDBY&#45;&gt;CHECK_WATER_LEVEL -->
<g id="edge1" class="edge">
<title>STANDBY&#45;&gt;CHECK_WATER_LEVEL</title>
<path fill="none" stroke="black" d="M118.19,-83.75C150.64,-92.76 191.14,-104 223.6,-113"/>
<polygon fill="black" stroke="black" points="222.25,-116.26 232.82,-115.56 224.12,-109.52 222.25,-116.26"/>
<text text-anchor="middle" x="176.52" y="-112.38" font-family="Times,serif" font-size="14.00">LED blinks</text>
</g>
<!-- CHECK_PAD -->
<g id="node4" class="node">
<title>CHECK_PAD</title>
<ellipse fill="none" stroke="black" cx="773.97" cy="-67.88" rx="48.79" ry="48.79"/>
<text text-anchor="middle" x="773.97" y="-71.38" font-family="Times,serif" font-size="14.00">CHECK</text>
<text text-anchor="middle" x="773.97" y="-54.58" font-family="Times,serif" font-size="14.00">PAD</text>
</g>
<!-- STANDBY&#45;&gt;CHECK_PAD -->
<g id="edge2" class="edge">
<title>STANDBY&#45;&gt;CHECK_PAD</title>
<path fill="none" stroke="black" d="M120.49,-67.88C254.61,-67.88 579.33,-67.88 713.47,-67.88"/>
<polygon fill="black" stroke="black" points="713.19,-71.38 723.19,-67.88 713.19,-64.38 713.19,-71.38"/>
<text text-anchor="middle" x="412.1" y="-71.38" font-family="Times,serif" font-size="14.00">LED is ON</text>
</g>
<!-- FILL_WATER -->
<g id="node3" class="node">
<title>FILL_WATER</title>
<ellipse fill="none" stroke="black" cx="542.39" cy="-128.88" rx="48.79" ry="48.79"/>
<text text-anchor="middle" x="542.39" y="-132.38" font-family="Times,serif" font-size="14.00">FILL</text>
<text text-anchor="middle" x="542.39" y="-115.58" font-family="Times,serif" font-size="14.00">WATER</text>
</g>
<!-- CHECK_WATER_LEVEL&#45;&gt;FILL_WATER -->
<g id="edge3" class="edge">
<title>CHECK_WATER_LEVEL&#45;&gt;FILL_WATER</title>
<path fill="none" stroke="black" d="M330.84,-128.88C373.53,-128.88 436.08,-128.88 481.91,-128.88"/>
<polygon fill="black" stroke="black" points="481.67,-132.38 491.67,-128.88 481.67,-125.38 481.67,-132.38"/>
<text text-anchor="middle" x="412.1" y="-132.38" font-family="Times,serif" font-size="14.00">Not enough water</text>
</g>
<!-- FILL_WATER&#45;&gt;CHECK_PAD -->
<g id="edge4" class="edge">
<title>FILL_WATER&#45;&gt;CHECK_PAD</title>
<path fill="none" stroke="black" d="M589.85,-116.54C626.1,-106.91 676.65,-93.47 715.46,-83.16"/>
<polygon fill="black" stroke="black" points="716.36,-86.55 725.12,-80.6 714.56,-79.78 716.36,-86.55"/>
<text text-anchor="middle" x="658.18" y="-113.38" font-family="Times,serif" font-size="14.00">Water is filled</text>
</g>
<!-- PLACE_PAD -->
<g id="node5" class="node">
<title>PLACE_PAD</title>
<ellipse fill="none" stroke="black" cx="1060.26" cy="-132.88" rx="45.96" ry="45.96"/>
<text text-anchor="middle" x="1060.26" y="-136.38" font-family="Times,serif" font-size="14.00">PLACE</text>
<text text-anchor="middle" x="1060.26" y="-119.58" font-family="Times,serif" font-size="14.00">PAD</text>
</g>
<!-- CHECK_PAD&#45;&gt;PLACE_PAD -->
<g id="edge5" class="edge">
<title>CHECK_PAD&#45;&gt;PLACE_PAD</title>
<path fill="none" stroke="black" d="M821.92,-78.62C871.87,-90.04 950.86,-108.1 1003.84,-120.21"/>
<polygon fill="black" stroke="black" points="1003.05,-123.62 1013.58,-122.44 1004.61,-116.8 1003.05,-123.62"/>
<text text-anchor="middle" x="891.76" y="-109.38" font-family="Times,serif" font-size="14.00">No pad placed</text>
</g>
<!-- TASK_PREPARED -->
<g id="node6" class="node">
<title>TASK_PREPARED</title>
<ellipse fill="none" stroke="black" cx="1355.65" cy="-67.88" rx="67.88" ry="67.88"/>
<text text-anchor="middle" x="1355.65" y="-71.38" font-family="Times,serif" font-size="14.00">TASK</text>
<text text-anchor="middle" x="1355.65" y="-54.58" font-family="Times,serif" font-size="14.00">PREPARED</text>
</g>
<!-- CHECK_PAD&#45;&gt;TASK_PREPARED -->
<g id="edge7" class="edge">
<title>CHECK_PAD&#45;&gt;TASK_PREPARED</title>
<path fill="none" stroke="black" d="M823.08,-65.64C860.58,-64.01 913.97,-61.94 960.76,-61.08 1049.19,-59.46 1071.33,-59.54 1159.76,-61.08 1198.1,-61.75 1240.65,-63.16 1276.19,-64.52"/>
<polygon fill="black" stroke="black" points="1275.83,-68.01 1285.96,-64.9 1276.1,-61.01 1275.83,-68.01"/>
<text text-anchor="middle" x="1060.26" y="-64.38" font-family="Times,serif" font-size="14.00">Water is filled, pad is placed</text>
</g>
<!-- PLACE_PAD&#45;&gt;TASK_PREPARED -->
<g id="edge6" class="edge">
<title>PLACE_PAD&#45;&gt;TASK_PREPARED</title>
<path fill="none" stroke="black" d="M1105.5,-123.08C1151.11,-112.98 1223.09,-97.03 1277.98,-84.87"/>
<polygon fill="black" stroke="black" points="1278.59,-88.32 1287.59,-82.74 1277.07,-81.48 1278.59,-88.32"/>
<text text-anchor="middle" x="1223.76" y="-109.38" font-family="Times,serif" font-size="14.00">Pad is placed</text>
</g>
</g>
</svg>
