<?xml version="1.0" encoding="UTF-8" standalone="no"?>
<!DOCTYPE svg PUBLIC "-//W3C//DTD SVG 1.1//EN"
 "http://www.w3.org/Graphics/SVG/1.1/DTD/svg11.dtd">
<!-- Generated by graphviz version 12.0.0 (20240704.0754)
 -->
<!-- Title: State Pages: 1 -->
<svg width="1432pt" height="203pt"
 viewBox="0.00 0.00 1431.53 202.97" xmlns="http://www.w3.org/2000/svg" xmlns:xlink="http://www.w3.org/1999/xlink">
<g id="graph0" class="graph" transform="scale(1 1) rotate(0) translate(4 198.97)">
<title>State</title>
<polygon fill="white" stroke="none" points="-4,4 -4,-198.97 1427.53,-198.97 1427.53,4 -4,4"/>
<!-- STANDBY -->
<g id="node1" class="node">
<title>STANDBY</title>
<ellipse fill="none" stroke="black" cx="60.01" cy="-60.01" rx="60.01" ry="60.01"/>
<text text-anchor="middle" x="60.01" y="-55.11" font-family="Times,serif" font-size="14.00">STANDBY</text>
</g>
<!-- CHECK_WATER_LEVEL -->
<g id="node2" class="node">
<title>CHECK_WATER_LEVEL</title>
<ellipse fill="none" stroke="black" cx="281.81" cy="-137.01" rx="48.79" ry="48.79"/>
<text text-anchor="middle" x="281.81" y="-148.91" font-family="Times,serif" font-size="14.00">CHECK</text>
<text text-anchor="middle" x="281.81" y="-132.11" font-family="Times,serif" font-size="14.00">WATER</text>
<text text-anchor="middle" x="281.81" y="-115.31" font-family="Times,serif" font-size="14.00">LEVEL</text>
</g>
<!-- STANDBY&#45;&gt;CHECK_WATER_LEVEL -->
<g id="edge1" class="edge">
<title>STANDBY&#45;&gt;CHECK_WATER_LEVEL</title>
<path fill="none" stroke="black" d="M117.04,-79.64C149.96,-91.17 191.43,-105.7 224.4,-117.25"/>
<polygon fill="black" stroke="black" points="223.21,-120.54 233.81,-120.54 225.53,-113.94 223.21,-120.54"/>
<text text-anchor="middle" x="176.52" y="-115.51" font-family="Times,serif" font-size="14.00">LED blinks</text>
</g>
<!-- CHECK_PAD -->
<g id="node4" class="node">
<title>CHECK_PAD</title>
<ellipse fill="none" stroke="black" cx="773.97" cy="-112.01" rx="48.79" ry="48.79"/>
<text text-anchor="middle" x="773.97" y="-115.51" font-family="Times,serif" font-size="14.00">CHECK</text>
<text text-anchor="middle" x="773.97" y="-98.71" font-family="Times,serif" font-size="14.00">PAD</text>
</g>
<!-- STANDBY&#45;&gt;CHECK_PAD -->
<g id="edge2" class="edge">
<title>STANDBY&#45;&gt;CHECK_PAD</title>
<path fill="none" stroke="black" d="M120.45,-59.36C218.71,-58.92 421.09,-60.62 591.18,-79.01 632.91,-83.52 679.47,-92.04 715.02,-99.29"/>
<polygon fill="black" stroke="black" points="714.18,-102.69 724.68,-101.29 715.6,-95.84 714.18,-102.69"/>
<text text-anchor="middle" x="412.1" y="-72.51" font-family="Times,serif" font-size="14.00">LED is ON</text>
</g>
<!-- FILL_WATER -->
<g id="node3" class="node">
<title>FILL_WATER</title>
<ellipse fill="none" stroke="black" cx="542.39" cy="-137.01" rx="48.79" ry="48.79"/>
<text text-anchor="middle" x="542.39" y="-140.51" font-family="Times,serif" font-size="14.00">FILL</text>
<text text-anchor="middle" x="542.39" y="-123.71" font-family="Times,serif" font-size="14.00">WATER</text>
</g>
<!-- CHECK_WATER_LEVEL&#45;&gt;FILL_WATER -->
<g id="edge3" class="edge">
<title>CHECK_WATER_LEVEL&#45;&gt;FILL_WATER</title>
<path fill="none" stroke="black" d="M330.84,-137.01C373.53,-137.01 436.08,-137.01 481.91,-137.01"/>
<polygon fill="black" stroke="black" points="481.67,-140.51 491.67,-137.01 481.67,-133.51 481.67,-140.51"/>
<text text-anchor="middle" x="412.1" y="-140.51" font-family="Times,serif" font-size="14.00">Not enough water</text>
</g>
<!-- FILL_WATER&#45;&gt;CHECK_PAD -->
<g id="edge4" class="edge">
<title>FILL_WATER&#45;&gt;CHECK_PAD</title>
<path fill="none" stroke="black" d="M591.24,-131.8C626.85,-127.92 675.67,-122.61 713.74,-118.46"/>
<polygon fill="black" stroke="black" points="714.12,-121.94 723.68,-117.38 713.36,-114.98 714.12,-121.94"/>
<text text-anchor="middle" x="658.18" y="-132.51" font-family="Times,serif" font-size="14.00">Water is filled</text>
</g>
<!-- PLACE_PAD -->
<g id="node5" class="node">
<title>PLACE_PAD</title>
<ellipse fill="none" stroke="black" cx="1060.26" cy="-149.01" rx="45.96" ry="45.96"/>
<text text-anchor="middle" x="1060.26" y="-152.51" font-family="Times,serif" font-size="14.00">PLACE</text>
<text text-anchor="middle" x="1060.26" y="-135.71" font-family="Times,serif" font-size="14.00">PAD</text>
</g>
<!-- CHECK_PAD&#45;&gt;PLACE_PAD -->
<g id="edge5" class="edge">
<title>CHECK_PAD&#45;&gt;PLACE_PAD</title>
<path fill="none" stroke="black" d="M822.56,-118.2C872.33,-124.68 950.42,-134.84 1003.16,-141.71"/>
<polygon fill="black" stroke="black" points="1002.47,-145.15 1012.84,-142.97 1003.38,-138.21 1002.47,-145.15"/>
<text text-anchor="middle" x="891.76" y="-136.51" font-family="Times,serif" font-size="14.00">No pad placed</text>
</g>
<!-- TASK_PREPARED -->
<g id="node6" class="node">
<title>TASK_PREPARED</title>
<ellipse fill="none" stroke="black" cx="1355.65" cy="-68.01" rx="67.88" ry="67.88"/>
<text text-anchor="middle" x="1355.65" y="-71.51" font-family="Times,serif" font-size="14.00">TASK</text>
<text text-anchor="middle" x="1355.65" y="-54.71" font-family="Times,serif" font-size="14.00">PREPARED</text>
</g>
<!-- CHECK_PAD&#45;&gt;TASK_PREPARED -->
<g id="edge7" class="edge">
<title>CHECK_PAD&#45;&gt;TASK_PREPARED</title>
<path fill="none" stroke="black" d="M822.01,-101.02C859.38,-92.81 913.11,-82.2 960.76,-77.21 1069.7,-65.81 1196.46,-65.07 1276.13,-66.12"/>
<polygon fill="black" stroke="black" points="1275.97,-69.62 1286.02,-66.26 1276.07,-62.62 1275.97,-69.62"/>
<text text-anchor="middle" x="1060.26" y="-80.51" font-family="Times,serif" font-size="14.00">Water is filled, pad is placed</text>
</g>
<!-- PLACE_PAD&#45;&gt;TASK_PREPARED -->
<g id="edge6" class="edge">
<title>PLACE_PAD&#45;&gt;TASK_PREPARED</title>
<path fill="none" stroke="black" d="M1104.87,-136.97C1150.74,-124.31 1223.79,-104.14 1279.07,-88.88"/>
<polygon fill="black" stroke="black" points="1279.71,-92.33 1288.42,-86.3 1277.85,-85.58 1279.71,-92.33"/>
<text text-anchor="middle" x="1223.76" y="-118.51" font-family="Times,serif" font-size="14.00">Pad is placed</text>
</g>
<!-- TASK_PREPARED&#45;&gt;STANDBY -->
<g id="edge8" class="edge">
<title>TASK_PREPARED&#45;&gt;STANDBY</title>
<path fill="none" stroke="black" d="M1289.27,-51.79C1230.12,-38.55 1140.4,-22.01 1061.26,-22.01 280.81,-22.01 280.81,-22.01 280.81,-22.01 229.62,-22.01 172.69,-32.14 129.6,-41.94"/>
<polygon fill="black" stroke="black" points="128.81,-38.53 119.87,-44.21 130.4,-45.35 128.81,-38.53"/>
</g>
</g>
</svg>
