<?xml version="1.0" encoding="UTF-8" standalone="no"?>
<!DOCTYPE svg PUBLIC "-//W3C//DTD SVG 1.1//EN"
 "http://www.w3.org/Graphics/SVG/1.1/DTD/svg11.dtd">
<!-- Generated by graphviz version 12.0.0 (20240704.0754)
 -->
<!-- Title: State Pages: 1 -->
<svg width="818pt" height="202pt"
 viewBox="0.00 0.00 818.30 201.55" xmlns="http://www.w3.org/2000/svg" xmlns:xlink="http://www.w3.org/1999/xlink">
<g id="graph0" class="graph" transform="scale(1 1) rotate(0) translate(4 197.55)">
<title>State</title>
<polygon fill="white" stroke="none" points="-4,4 -4,-197.55 814.3,-197.55 814.3,4 -4,4"/>
<!-- OFF -->
<g id="node1" class="node">
<title>OFF</title>
<ellipse fill="none" stroke="black" cx="31.73" cy="-54.45" rx="31.73" ry="31.73"/>
<text text-anchor="middle" x="31.73" y="-49.55" font-family="Times,serif" font-size="14.00">OFF</text>
</g>
<!-- IDLE -->
<g id="node2" class="node">
<title>IDLE</title>
<ellipse fill="none" stroke="black" cx="218.33" cy="-54.45" rx="35.87" ry="35.87"/>
<text text-anchor="middle" x="218.33" y="-49.55" font-family="Times,serif" font-size="14.00">IDLE</text>
</g>
<!-- OFF&#45;&gt;IDLE -->
<g id="edge1" class="edge">
<title>OFF&#45;&gt;IDLE</title>
<path fill="none" stroke="black" d="M63.63,-54.45C92.92,-54.45 137.3,-54.45 170.86,-54.45"/>
<polygon fill="black" stroke="black" points="170.72,-57.95 180.72,-54.45 170.72,-50.95 170.72,-57.95"/>
<text text-anchor="middle" x="122.96" y="-57.95" font-family="Times,serif" font-size="14.00">Power is on</text>
</g>
<!-- IDLE&#45;&gt;OFF -->
<g id="edge5" class="edge">
<title>IDLE&#45;&gt;OFF</title>
<path fill="none" stroke="black" d="M185.18,-39.6C178.47,-37.13 171.34,-34.95 164.46,-33.65 128.22,-26.77 117.6,-26.26 81.46,-33.65 78.06,-34.34 74.59,-35.29 71.17,-36.39"/>
<polygon fill="black" stroke="black" points="70.04,-33.08 61.87,-39.82 72.46,-39.64 70.04,-33.08"/>
<text text-anchor="middle" x="122.96" y="-36.95" font-family="Times,serif" font-size="14.00">Power is off</text>
</g>
<!-- HEATING_WATER -->
<g id="node3" class="node">
<title>HEATING_WATER</title>
<ellipse fill="none" stroke="black" cx="495.3" cy="-133.45" rx="60.1" ry="60.1"/>
<text text-anchor="middle" x="495.3" y="-136.95" font-family="Times,serif" font-size="14.00">HEATING</text>
<text text-anchor="middle" x="495.3" y="-120.15" font-family="Times,serif" font-size="14.00">WATER</text>
</g>
<!-- IDLE&#45;&gt;HEATING_WATER -->
<g id="edge2" class="edge">
<title>IDLE&#45;&gt;HEATING_WATER</title>
<path fill="none" stroke="black" d="M253.32,-64.21C296.27,-76.55 371.2,-98.08 426.14,-113.86"/>
<polygon fill="black" stroke="black" points="425.16,-117.22 435.74,-116.62 427.09,-110.5 425.16,-117.22"/>
<text text-anchor="middle" x="344.7" y="-112.95" font-family="Times,serif" font-size="14.00">Machine is prepared</text>
</g>
<!-- BREW_COFFEE -->
<g id="node4" class="node">
<title>BREW_COFFEE</title>
<ellipse fill="none" stroke="black" cx="755.85" cy="-54.45" rx="54.45" ry="54.45"/>
<text text-anchor="middle" x="755.85" y="-57.95" font-family="Times,serif" font-size="14.00">BREW</text>
<text text-anchor="middle" x="755.85" y="-41.15" font-family="Times,serif" font-size="14.00">COFFEE</text>
</g>
<!-- HEATING_WATER&#45;&gt;BREW_COFFEE -->
<g id="edge3" class="edge">
<title>HEATING_WATER&#45;&gt;BREW_COFFEE</title>
<path fill="none" stroke="black" d="M553.04,-116.11C594.34,-103.49 650.24,-86.41 692.73,-73.43"/>
<polygon fill="black" stroke="black" points="693.52,-76.85 702.06,-70.58 691.47,-70.15 693.52,-76.85"/>
<text text-anchor="middle" x="628.41" y="-110.95" font-family="Times,serif" font-size="14.00">Water is heated</text>
</g>
<!-- BREW_COFFEE&#45;&gt;IDLE -->
<g id="edge4" class="edge">
<title>BREW_COFFEE&#45;&gt;IDLE</title>
<path fill="none" stroke="black" d="M701.11,-52.12C660.98,-50.5 604.77,-48.49 555.41,-47.65 501.99,-46.74 488.62,-46.81 435.2,-47.65 376.82,-48.57 309.58,-50.88 265.87,-52.56"/>
<polygon fill="black" stroke="black" points="265.84,-49.06 255.98,-52.94 266.11,-56.05 265.84,-49.06"/>
<text text-anchor="middle" x="495.3" y="-50.95" font-family="Times,serif" font-size="14.00">Coffee is brewed</text>
</g>
</g>
</svg>
