<svg xmlns="http://www.w3.org/2000/svg" xmlns:xlink="http://www.w3.org/1999/xlink" contentStyleType="text/css" height="1137px" preserveAspectRatio="none" style="width:1052px;height:1137px;background:#FFFFFF;" version="1.1" viewBox="0 0 1052 1137" width="1052px" zoomAndPan="magnify"><defs/><g><rect fill="#FF0000" height="116.5313" style="stroke:#181818;stroke-width:1.0;" width="10" x="258.2349" y="67.4297"/><rect fill="#FF0000" height="116.5313" style="stroke:#181818;stroke-width:1.0;" width="10" x="258.2349" y="300.4922"/><rect fill="#FF0000" height="116.5313" style="stroke:#181818;stroke-width:1.0;" width="10" x="258.2349" y="446.1563"/><rect fill="#FF0000" height="116.5313" style="stroke:#181818;stroke-width:1.0;" width="10" x="258.2349" y="938.2813"/><rect fill="#0000FF" height="58.2656" style="stroke:#181818;stroke-width:1.0;" width="10" x="491.6528" y="96.5625"/><rect fill="#0000FF" height="58.2656" style="stroke:#181818;stroke-width:1.0;" width="10" x="491.6528" y="329.625"/><rect fill="#0000FF" height="58.2656" style="stroke:#181818;stroke-width:1.0;" width="10" x="491.6528" y="475.2891"/><rect fill="#0000FF" height="58.2656" style="stroke:#181818;stroke-width:1.0;" width="10" x="491.6528" y="967.4141"/><rect fill="#FFA500" height="87.3984" style="stroke:#181818;stroke-width:1.0;" width="10" x="802.6831" y="792.6172"/><rect fill="#008000" height="142.5313" style="stroke:#181818;stroke-width:1.0;" width="10" x="930.7329" y="620.9531"/><line style="stroke:#181818;stroke-width:0.5;stroke-dasharray:5.0,5.0;" x1="27" x2="27" y1="36.2969" y2="1101.9453"/><line style="stroke:#181818;stroke-width:0.5;stroke-dasharray:5.0,5.0;" x1="262.8662" x2="262.8662" y1="36.2969" y2="1101.9453"/><line style="stroke:#181818;stroke-width:0.5;stroke-dasharray:5.0,5.0;" x1="495.8716" x2="495.8716" y1="36.2969" y2="1101.9453"/><line style="stroke:#181818;stroke-width:0.5;stroke-dasharray:5.0,5.0;" x1="624.5444" x2="624.5444" y1="36.2969" y2="1101.9453"/><line style="stroke:#181818;stroke-width:0.5;stroke-dasharray:5.0,5.0;" x1="807.5576" x2="807.5576" y1="36.2969" y2="1101.9453"/><line style="stroke:#181818;stroke-width:0.5;stroke-dasharray:5.0,5.0;" x1="934.8086" x2="934.8086" y1="36.2969" y2="1101.9453"/><rect fill="#E2E2F0" height="30.2969" rx="2.5" ry="2.5" style="stroke:#181818;stroke-width:0.5;" width="45.9102" x="5" y="5"/><text fill="#000000" font-family="sans-serif" font-size="14" lengthAdjust="spacing" textLength="31.9102" x="12" y="24.9951">User</text><rect fill="#E2E2F0" height="30.2969" rx="2.5" ry="2.5" style="stroke:#181818;stroke-width:0.5;" width="45.9102" x="5" y="1100.9453"/><text fill="#000000" font-family="sans-serif" font-size="14" lengthAdjust="spacing" textLength="31.9102" x="12" y="1120.9404">User</text><rect fill="#E2E2F0" height="30.2969" rx="2.5" ry="2.5" style="stroke:#181818;stroke-width:0.5;" width="102.7373" x="211.8662" y="5"/><text fill="#000000" font-family="sans-serif" font-size="14" lengthAdjust="spacing" textLength="88.7373" x="218.8662" y="24.9951">Visualization</text><rect fill="#E2E2F0" height="30.2969" rx="2.5" ry="2.5" style="stroke:#181818;stroke-width:0.5;" width="102.7373" x="211.8662" y="1100.9453"/><text fill="#000000" font-family="sans-serif" font-size="14" lengthAdjust="spacing" textLength="88.7373" x="218.8662" y="1120.9404">Visualization</text><rect fill="#E2E2F0" height="30.2969" rx="2.5" ry="2.5" style="stroke:#181818;stroke-width:0.5;" width="97.5625" x="447.8716" y="5"/><text fill="#000000" font-family="sans-serif" font-size="14" lengthAdjust="spacing" textLength="83.5625" x="454.8716" y="24.9951">PRG_Person</text><rect fill="#E2E2F0" height="30.2969" rx="2.5" ry="2.5" style="stroke:#181818;stroke-width:0.5;" width="97.5625" x="447.8716" y="1100.9453"/><text fill="#000000" font-family="sans-serif" font-size="14" lengthAdjust="spacing" textLength="83.5625" x="454.8716" y="1120.9404">PRG_Person</text><rect fill="#E2E2F0" height="30.2969" rx="2.5" ry="2.5" style="stroke:#181818;stroke-width:0.5;" width="42.2256" x="603.5444" y="5"/><text fill="#000000" font-family="sans-serif" font-size="14" lengthAdjust="spacing" textLength="28.2256" x="610.5444" y="24.9951">GVL</text><rect fill="#E2E2F0" height="30.2969" rx="2.5" ry="2.5" style="stroke:#181818;stroke-width:0.5;" width="42.2256" x="603.5444" y="1100.9453"/><text fill="#000000" font-family="sans-serif" font-size="14" lengthAdjust="spacing" textLength="28.2256" x="610.5444" y="1120.9404">GVL</text><rect fill="#E2E2F0" height="30.2969" rx="2.5" ry="2.5" style="stroke:#181818;stroke-width:0.5;" width="134.251" x="740.5576" y="5"/><text fill="#000000" font-family="sans-serif" font-size="14" lengthAdjust="spacing" textLength="120.251" x="747.5576" y="24.9951">Prepare_Machine</text><rect fill="#E2E2F0" height="30.2969" rx="2.5" ry="2.5" style="stroke:#181818;stroke-width:0.5;" width="134.251" x="740.5576" y="1100.9453"/><text fill="#000000" font-family="sans-serif" font-size="14" lengthAdjust="spacing" textLength="120.251" x="747.5576" y="1120.9404">Prepare_Machine</text><rect fill="#E2E2F0" height="30.2969" rx="2.5" ry="2.5" style="stroke:#181818;stroke-width:0.5;" width="101.8486" x="884.8086" y="5"/><text fill="#000000" font-family="sans-serif" font-size="14" lengthAdjust="spacing" textLength="87.8486" x="891.8086" y="24.9951">Brew_Coffee</text><rect fill="#E2E2F0" height="30.2969" rx="2.5" ry="2.5" style="stroke:#181818;stroke-width:0.5;" width="101.8486" x="884.8086" y="1100.9453"/><text fill="#000000" font-family="sans-serif" font-size="14" lengthAdjust="spacing" textLength="87.8486" x="891.8086" y="1120.9404">Brew_Coffee</text><rect fill="#FF0000" height="116.5313" style="stroke:#181818;stroke-width:1.0;" width="10" x="258.2349" y="67.4297"/><rect fill="#FF0000" height="116.5313" style="stroke:#181818;stroke-width:1.0;" width="10" x="258.2349" y="300.4922"/><rect fill="#FF0000" height="116.5313" style="stroke:#181818;stroke-width:1.0;" width="10" x="258.2349" y="446.1563"/><rect fill="#FF0000" height="116.5313" style="stroke:#181818;stroke-width:1.0;" width="10" x="258.2349" y="938.2813"/><rect fill="#0000FF" height="58.2656" style="stroke:#181818;stroke-width:1.0;" width="10" x="491.6528" y="96.5625"/><rect fill="#0000FF" height="58.2656" style="stroke:#181818;stroke-width:1.0;" width="10" x="491.6528" y="329.625"/><rect fill="#0000FF" height="58.2656" style="stroke:#181818;stroke-width:1.0;" width="10" x="491.6528" y="475.2891"/><rect fill="#0000FF" height="58.2656" style="stroke:#181818;stroke-width:1.0;" width="10" x="491.6528" y="967.4141"/><rect fill="#FFA500" height="87.3984" style="stroke:#181818;stroke-width:1.0;" width="10" x="802.6831" y="792.6172"/><rect fill="#008000" height="142.5313" style="stroke:#181818;stroke-width:1.0;" width="10" x="930.7329" y="620.9531"/><polygon fill="#181818" points="246.2349,63.4297,256.2349,67.4297,246.2349,71.4297,250.2349,67.4297" style="stroke:#181818;stroke-width:1.0;"/><line style="stroke:#181818;stroke-width:1.0;" x1="27.9551" x2="252.2349" y1="67.4297" y2="67.4297"/><text fill="#000000" font-family="sans-serif" font-size="13" lengthAdjust="spacing" textLength="129.1494" x="34.9551" y="62.3638">Push 'Power' button</text><polygon fill="#181818" points="479.6528,92.5625,489.6528,96.5625,479.6528,100.5625,483.6528,96.5625" style="stroke:#181818;stroke-width:1.0;"/><line style="stroke:#181818;stroke-width:1.0;" x1="268.2349" x2="485.6528" y1="96.5625" y2="96.5625"/><text fill="#000000" font-family="sans-serif" font-size="13" lengthAdjust="spacing" textLength="125.9565" x="275.2349" y="91.4966">Change var 'Power'</text><polygon fill="#181818" points="612.6572,121.6953,622.6572,125.6953,612.6572,129.6953,616.6572,125.6953" style="stroke:#181818;stroke-width:1.0;"/><line style="stroke:#181818;stroke-width:1.0;" x1="501.6528" x2="618.6572" y1="125.6953" y2="125.6953"/><text fill="#000000" font-family="sans-serif" font-size="13" lengthAdjust="spacing" textLength="93.6279" x="508.6528" y="120.6294">Power = TRUE</text><polygon fill="#181818" points="279.2349,150.8281,269.2349,154.8281,279.2349,158.8281,275.2349,154.8281" style="stroke:#181818;stroke-width:1.0;"/><line style="stroke:#181818;stroke-width:1.0;stroke-dasharray:2.0,2.0;" x1="273.2349" x2="495.6528" y1="154.8281" y2="154.8281"/><text fill="#000000" font-family="sans-serif" font-size="13" lengthAdjust="spacing" textLength="146.4785" x="285.2349" y="149.7622">Button 'Power' pushed</text><polygon fill="#181818" points="38.9551,179.9609,28.9551,183.9609,38.9551,187.9609,34.9551,183.9609" style="stroke:#181818;stroke-width:1.0;"/><line style="stroke:#181818;stroke-width:1.0;stroke-dasharray:2.0,2.0;" x1="32.9551" x2="262.2349" y1="183.9609" y2="183.9609"/><text fill="#000000" font-family="sans-serif" font-size="13" lengthAdjust="spacing" textLength="153.3403" x="44.9551" y="178.895">Button 'Power' changes</text><polygon fill="#181818" points="274.2349,209.0938,264.2349,213.0938,274.2349,217.0938,270.2349,213.0938" style="stroke:#181818;stroke-width:1.0;"/><line style="stroke:#181818;stroke-width:1.0;" x1="268.2349" x2="806.6831" y1="213.0938" y2="213.0938"/><text fill="#000000" font-family="sans-serif" font-size="13" lengthAdjust="spacing" textLength="152.3438" x="280.2349" y="208.0278">Indicator 'LED' turns on</text><polygon fill="#181818" points="635.6572,238.2266,625.6572,242.2266,635.6572,246.2266,631.6572,242.2266" style="stroke:#181818;stroke-width:1.0;"/><line style="stroke:#181818;stroke-width:1.0;" x1="629.6572" x2="806.6831" y1="242.2266" y2="242.2266"/><text fill="#000000" font-family="sans-serif" font-size="13" lengthAdjust="spacing" textLength="114.2959" x="641.6572" y="237.1606">Check Waterlevel</text><polygon fill="#181818" points="795.6831,267.3594,805.6831,271.3594,795.6831,275.3594,799.6831,271.3594" style="stroke:#181818;stroke-width:1.0;"/><line style="stroke:#181818;stroke-width:1.0;stroke-dasharray:2.0,2.0;" x1="624.6572" x2="801.6831" y1="271.3594" y2="271.3594"/><text fill="#000000" font-family="sans-serif" font-size="13" lengthAdjust="spacing" textLength="116.0352" x="631.6572" y="266.2935">Return waterlevel</text><polygon fill="#181818" points="246.2349,296.4922,256.2349,300.4922,246.2349,304.4922,250.2349,300.4922" style="stroke:#181818;stroke-width:1.0;"/><line style="stroke:#181818;stroke-width:1.0;" x1="27.9551" x2="252.2349" y1="300.4922" y2="300.4922"/><text fill="#000000" font-family="sans-serif" font-size="13" lengthAdjust="spacing" textLength="113.4263" x="34.9551" y="295.4263">Push 'Pod' button</text><polygon fill="#181818" points="479.6528,325.625,489.6528,329.625,479.6528,333.625,483.6528,329.625" style="stroke:#181818;stroke-width:1.0;"/><line style="stroke:#181818;stroke-width:1.0;" x1="268.2349" x2="485.6528" y1="329.625" y2="329.625"/><text fill="#000000" font-family="sans-serif" font-size="13" lengthAdjust="spacing" textLength="110.2334" x="275.2349" y="324.5591">Change var 'Pod'</text><polygon fill="#181818" points="795.6831,354.7578,805.6831,358.7578,795.6831,362.7578,799.6831,358.7578" style="stroke:#181818;stroke-width:1.0;"/><line style="stroke:#181818;stroke-width:1.0;" x1="501.6528" x2="801.6831" y1="358.7578" y2="358.7578"/><text fill="#000000" font-family="sans-serif" font-size="13" lengthAdjust="spacing" textLength="77.9048" x="508.6528" y="353.6919">Pod = TRUE</text><polygon fill="#181818" points="279.2349,383.8906,269.2349,387.8906,279.2349,391.8906,275.2349,387.8906" style="stroke:#181818;stroke-width:1.0;"/><line style="stroke:#181818;stroke-width:1.0;stroke-dasharray:2.0,2.0;" x1="273.2349" x2="495.6528" y1="387.8906" y2="387.8906"/><text fill="#000000" font-family="sans-serif" font-size="13" lengthAdjust="spacing" textLength="130.7554" x="285.2349" y="382.8247">Button 'Pod' pushed</text><polygon fill="#181818" points="38.9551,413.0234,28.9551,417.0234,38.9551,421.0234,34.9551,417.0234" style="stroke:#181818;stroke-width:1.0;"/><line style="stroke:#181818;stroke-width:1.0;stroke-dasharray:2.0,2.0;" x1="32.9551" x2="262.2349" y1="417.0234" y2="417.0234"/><text fill="#000000" font-family="sans-serif" font-size="13" lengthAdjust="spacing" textLength="137.6172" x="44.9551" y="411.9575">Button 'Pod' changes</text><polygon fill="#181818" points="246.2349,442.1563,256.2349,446.1563,246.2349,450.1563,250.2349,446.1563" style="stroke:#181818;stroke-width:1.0;"/><line style="stroke:#181818;stroke-width:1.0;" x1="27.9551" x2="252.2349" y1="446.1563" y2="446.1563"/><text fill="#000000" font-family="sans-serif" font-size="13" lengthAdjust="spacing" textLength="180.1592" x="34.9551" y="441.0903">Push 'Cups choosen' button</text><polygon fill="#181818" points="479.6528,471.2891,489.6528,475.2891,479.6528,479.2891,483.6528,475.2891" style="stroke:#181818;stroke-width:1.0;"/><line style="stroke:#181818;stroke-width:1.0;" x1="268.2349" x2="485.6528" y1="475.2891" y2="475.2891"/><text fill="#000000" font-family="sans-serif" font-size="13" lengthAdjust="spacing" textLength="176.9663" x="275.2349" y="470.2231">Change var 'Cups choosen'</text><polygon fill="#181818" points="795.6831,500.4219,805.6831,504.4219,795.6831,508.4219,799.6831,504.4219" style="stroke:#181818;stroke-width:1.0;"/><line style="stroke:#181818;stroke-width:1.0;" x1="501.6528" x2="801.6831" y1="504.4219" y2="504.4219"/><text fill="#000000" font-family="sans-serif" font-size="13" lengthAdjust="spacing" textLength="144.6377" x="508.6528" y="499.356">Cups choosen = TRUE</text><polygon fill="#181818" points="279.2349,529.5547,269.2349,533.5547,279.2349,537.5547,275.2349,533.5547" style="stroke:#181818;stroke-width:1.0;"/><line style="stroke:#181818;stroke-width:1.0;stroke-dasharray:2.0,2.0;" x1="273.2349" x2="495.6528" y1="533.5547" y2="533.5547"/><text fill="#000000" font-family="sans-serif" font-size="13" lengthAdjust="spacing" textLength="199.418" x="285.2349" y="528.4888">Button 'Cups Choosen' pushed</text><polygon fill="#181818" points="38.9551,558.6875,28.9551,562.6875,38.9551,566.6875,34.9551,562.6875" style="stroke:#181818;stroke-width:1.0;"/><line style="stroke:#181818;stroke-width:1.0;stroke-dasharray:2.0,2.0;" x1="32.9551" x2="262.2349" y1="562.6875" y2="562.6875"/><text fill="#000000" font-family="sans-serif" font-size="13" lengthAdjust="spacing" textLength="206.2798" x="44.9551" y="557.6216">Button 'Cups Choosen' changes</text><polygon fill="#181818" points="635.6572,587.8203,625.6572,591.8203,635.6572,595.8203,631.6572,591.8203" style="stroke:#181818;stroke-width:1.0;"/><line style="stroke:#181818;stroke-width:1.0;" x1="629.6572" x2="806.6831" y1="591.8203" y2="591.8203"/><text fill="#000000" font-family="sans-serif" font-size="13" lengthAdjust="spacing" textLength="142.0796" x="641.6572" y="586.7544">Start brewing = TRUE</text><polygon fill="#181818" points="635.6572,616.9531,625.6572,620.9531,635.6572,624.9531,631.6572,620.9531" style="stroke:#181818;stroke-width:1.0;"/><line style="stroke:#181818;stroke-width:1.0;" x1="629.6572" x2="929.7329" y1="620.9531" y2="620.9531"/><text fill="#000000" font-family="sans-serif" font-size="13" lengthAdjust="spacing" textLength="114.8672" x="641.6572" y="615.8872">Start brew_coffee</text><line style="stroke:#181818;stroke-width:1.0;" x1="940.7329" x2="982.7329" y1="650.0859" y2="650.0859"/><line style="stroke:#181818;stroke-width:1.0;" x1="982.7329" x2="982.7329" y1="650.0859" y2="663.0859"/><line style="stroke:#181818;stroke-width:1.0;" x1="941.7329" x2="982.7329" y1="663.0859" y2="663.0859"/><polygon fill="#181818" points="951.7329,659.0859,941.7329,663.0859,951.7329,667.0859,947.7329,663.0859" style="stroke:#181818;stroke-width:1.0;"/><text fill="#000000" font-family="sans-serif" font-size="13" lengthAdjust="spacing" textLength="92.1108" x="947.7329" y="645.02">Heating water</text><line style="stroke:#181818;stroke-width:1.0;" x1="940.7329" x2="982.7329" y1="692.2188" y2="692.2188"/><line style="stroke:#181818;stroke-width:1.0;" x1="982.7329" x2="982.7329" y1="692.2188" y2="705.2188"/><line style="stroke:#181818;stroke-width:1.0;" x1="941.7329" x2="982.7329" y1="705.2188" y2="705.2188"/><polygon fill="#181818" points="951.7329,701.2188,941.7329,705.2188,951.7329,709.2188,947.7329,705.2188" style="stroke:#181818;stroke-width:1.0;"/><text fill="#000000" font-family="sans-serif" font-size="13" lengthAdjust="spacing" textLength="97.3794" x="947.7329" y="687.1528">Brewing coffee</text><polygon fill="#181818" points="635.6572,730.3516,625.6572,734.3516,635.6572,738.3516,631.6572,734.3516" style="stroke:#181818;stroke-width:1.0;"/><line style="stroke:#181818;stroke-width:1.0;" x1="629.6572" x2="929.7329" y1="734.3516" y2="734.3516"/><text fill="#000000" font-family="sans-serif" font-size="13" lengthAdjust="spacing" textLength="147.4561" x="641.6572" y="729.2856">Start brewing = FALSE</text><polygon fill="#181818" points="635.6572,759.4844,625.6572,763.4844,635.6572,767.4844,631.6572,763.4844" style="stroke:#181818;stroke-width:1.0;"/><line style="stroke:#181818;stroke-width:1.0;" x1="629.6572" x2="934.7329" y1="763.4844" y2="763.4844"/><text fill="#000000" font-family="sans-serif" font-size="13" lengthAdjust="spacing" textLength="148.6494" x="641.6572" y="758.4185">Coffee brewed = TRUE</text><polygon fill="#181818" points="635.6572,788.6172,625.6572,792.6172,635.6572,796.6172,631.6572,792.6172" style="stroke:#181818;stroke-width:1.0;"/><line style="stroke:#181818;stroke-width:1.0;" x1="629.6572" x2="801.6831" y1="792.6172" y2="792.6172"/><text fill="#000000" font-family="sans-serif" font-size="13" lengthAdjust="spacing" textLength="87.2676" x="641.6572" y="787.5513">Waterlevel -1</text><polygon fill="#181818" points="635.6572,817.75,625.6572,821.75,635.6572,825.75,631.6572,821.75" style="stroke:#181818;stroke-width:1.0;"/><line style="stroke:#181818;stroke-width:1.0;" x1="629.6572" x2="801.6831" y1="821.75" y2="821.75"/><text fill="#000000" font-family="sans-serif" font-size="13" lengthAdjust="spacing" textLength="154.0259" x="641.6572" y="816.6841">Coffee brewed = FALSE</text><polygon fill="#181818" points="274.2349,846.8828,264.2349,850.8828,274.2349,854.8828,270.2349,850.8828" style="stroke:#181818;stroke-width:1.0;"/><line style="stroke:#181818;stroke-width:1.0;" x1="268.2349" x2="801.6831" y1="850.8828" y2="850.8828"/><text fill="#000000" font-family="sans-serif" font-size="13" lengthAdjust="spacing" textLength="160.0815" x="280.2349" y="845.8169">Button 'Pod' deactivated</text><polygon fill="#181818" points="274.2349,876.0156,264.2349,880.0156,274.2349,884.0156,270.2349,880.0156" style="stroke:#181818;stroke-width:1.0;"/><line style="stroke:#181818;stroke-width:1.0;" x1="268.2349" x2="806.6831" y1="880.0156" y2="880.0156"/><text fill="#000000" font-family="sans-serif" font-size="13" lengthAdjust="spacing" textLength="226.8145" x="280.2349" y="874.9497">Button 'Cups choosen' deactivated</text><polygon fill="#181818" points="274.2349,905.1484,264.2349,909.1484,274.2349,913.1484,270.2349,909.1484" style="stroke:#181818;stroke-width:1.0;"/><line style="stroke:#181818;stroke-width:1.0;" x1="268.2349" x2="623.6572" y1="909.1484" y2="909.1484"/><text fill="#000000" font-family="sans-serif" font-size="13" lengthAdjust="spacing" textLength="126.312" x="280.2349" y="904.0825">Update 'waterlevel'</text><polygon fill="#181818" points="246.2349,934.2813,256.2349,938.2813,246.2349,942.2813,250.2349,938.2813" style="stroke:#181818;stroke-width:1.0;"/><line style="stroke:#181818;stroke-width:1.0;" x1="27.9551" x2="252.2349" y1="938.2813" y2="938.2813"/><text fill="#000000" font-family="sans-serif" font-size="13" lengthAdjust="spacing" textLength="129.1494" x="34.9551" y="933.2153">Push 'Power' button</text><polygon fill="#181818" points="479.6528,963.4141,489.6528,967.4141,479.6528,971.4141,483.6528,967.4141" style="stroke:#181818;stroke-width:1.0;"/><line style="stroke:#181818;stroke-width:1.0;" x1="268.2349" x2="485.6528" y1="967.4141" y2="967.4141"/><text fill="#000000" font-family="sans-serif" font-size="13" lengthAdjust="spacing" textLength="125.9565" x="275.2349" y="962.3481">Change var 'Power'</text><polygon fill="#181818" points="612.6572,992.5469,622.6572,996.5469,612.6572,1000.5469,616.6572,996.5469" style="stroke:#181818;stroke-width:1.0;"/><line style="stroke:#181818;stroke-width:1.0;" x1="501.6528" x2="618.6572" y1="996.5469" y2="996.5469"/><text fill="#000000" font-family="sans-serif" font-size="13" lengthAdjust="spacing" textLength="99.0044" x="508.6528" y="991.481">Power = FALSE</text><polygon fill="#181818" points="279.2349,1021.6797,269.2349,1025.6797,279.2349,1029.6797,275.2349,1025.6797" style="stroke:#181818;stroke-width:1.0;"/><line style="stroke:#181818;stroke-width:1.0;stroke-dasharray:2.0,2.0;" x1="273.2349" x2="495.6528" y1="1025.6797" y2="1025.6797"/><text fill="#000000" font-family="sans-serif" font-size="13" lengthAdjust="spacing" textLength="146.4785" x="285.2349" y="1020.6138">Button 'Power' pushed</text><polygon fill="#181818" points="38.9551,1050.8125,28.9551,1054.8125,38.9551,1058.8125,34.9551,1054.8125" style="stroke:#181818;stroke-width:1.0;"/><line style="stroke:#181818;stroke-width:1.0;stroke-dasharray:2.0,2.0;" x1="32.9551" x2="262.2349" y1="1054.8125" y2="1054.8125"/><text fill="#000000" font-family="sans-serif" font-size="13" lengthAdjust="spacing" textLength="153.3403" x="44.9551" y="1049.7466">Button 'Power' changes</text><polygon fill="#181818" points="274.2349,1079.9453,264.2349,1083.9453,274.2349,1087.9453,270.2349,1083.9453" style="stroke:#181818;stroke-width:1.0;"/><line style="stroke:#181818;stroke-width:1.0;" x1="268.2349" x2="806.6831" y1="1083.9453" y2="1083.9453"/><text fill="#000000" font-family="sans-serif" font-size="13" lengthAdjust="spacing" textLength="153.2578" x="280.2349" y="1078.8794">Indicator 'LED' turns off</text><!--SRC=[pLLDRu904BtpAoRXmCb3hoPj8aXf4se95diqApi8gG6oB9hqrtVvi2mVehOcxN6NDs_Ul65clGmPJ1vW5MKvsKMVX4T9F0KdpqBGdEI0J8DDpdaIAyJdqPvmR6D1TSsvqhuIV8vhhHraMK5cX2JU8km9Er8sN0qELDtsJ4Mw43JMoXPYYXYuXpUtyxslMo-bVYjFHHb85Of3-RgY1PidtEYH-ANyJ6PfHoeEmvGmNByGFunY7F3pEQQHJtWY7B3DkGOyPt46mjIXsB9e8qJ_0zv5DhR3FUuKSLjgx0HCmSM23GuDL56yyRRIMpULNjxIdduHVMrpwUzRIozfxBYFHfvcWYH9CenlQsYB-UVEoZJNMLn66iVInhm-QtMRwWBFJqt4aXF6OSFm4CNROpcwEAwD90Xm2BZsoo-DWp9SjLpJN7GPfECKdb284idAsHf5whMiEk6uh4h_uynU3XTG7mieVi-6v9WKSzAjPdF0v4xwXJfmzTMTBIppz1hgIAb4drzuhK5hfDChGjlZ9NF8FsARhjgIFKelfGLOQtQaTdP7_gkdhxRzPczVbV3l7y0W-080]--></g></svg>