<svg xmlns="http://www.w3.org/2000/svg" xmlns:xlink="http://www.w3.org/1999/xlink" contentStyleType="text/css" height="687px" preserveAspectRatio="none" style="width:1050px;height:687px;background:#FFFFFF;" version="1.1" viewBox="0 0 1050 687" width="1050px" zoomAndPan="magnify"><defs/><g><rect fill="#FF0000" height="116.5313" style="stroke:#181818;stroke-width:1.0;" width="10" x="253.4805" y="67.4297"/><rect fill="#FF0000" height="116.5313" style="stroke:#181818;stroke-width:1.0;" width="10" x="253.4805" y="400.8906"/><rect fill="#0000FF" height="58.2656" style="stroke:#181818;stroke-width:1.0;" width="10" x="501.4702" y="96.5625"/><rect fill="#0000FF" height="58.2656" style="stroke:#181818;stroke-width:1.0;" width="10" x="501.4702" y="430.0234"/><rect fill="#FFFF00" height="246.0625" style="stroke:#181818;stroke-width:1.0;" width="10" x="941.9561" y="329.625"/><line style="stroke:#181818;stroke-width:0.5;stroke-dasharray:5.0,5.0;" x1="27" x2="27" y1="36.2969" y2="651.9531"/><line style="stroke:#181818;stroke-width:0.5;stroke-dasharray:5.0,5.0;" x1="258.1118" x2="258.1118" y1="36.2969" y2="651.9531"/><line style="stroke:#181818;stroke-width:0.5;stroke-dasharray:5.0,5.0;" x1="505.689" x2="505.689" y1="36.2969" y2="651.9531"/><line style="stroke:#181818;stroke-width:0.5;stroke-dasharray:5.0,5.0;" x1="628.9854" x2="628.9854" y1="36.2969" y2="651.9531"/><line style="stroke:#181818;stroke-width:0.5;stroke-dasharray:5.0,5.0;" x1="767.2686" x2="767.2686" y1="36.2969" y2="651.9531"/><line style="stroke:#181818;stroke-width:0.5;stroke-dasharray:5.0,5.0;" x1="946.1899" x2="946.1899" y1="36.2969" y2="651.9531"/><rect fill="#E2E2F0" height="30.2969" rx="2.5" ry="2.5" style="stroke:#181818;stroke-width:0.5;" width="45.9102" x="5" y="5"/><text fill="#000000" font-family="sans-serif" font-size="14" lengthAdjust="spacing" textLength="31.9102" x="12" y="24.9951">User</text><rect fill="#E2E2F0" height="30.2969" rx="2.5" ry="2.5" style="stroke:#181818;stroke-width:0.5;" width="45.9102" x="5" y="650.9531"/><text fill="#000000" font-family="sans-serif" font-size="14" lengthAdjust="spacing" textLength="31.9102" x="12" y="670.9482">User</text><rect fill="#E2E2F0" height="30.2969" rx="2.5" ry="2.5" style="stroke:#181818;stroke-width:0.5;" width="102.7373" x="207.1118" y="5"/><text fill="#000000" font-family="sans-serif" font-size="14" lengthAdjust="spacing" textLength="88.7373" x="214.1118" y="24.9951">Visualization</text><rect fill="#E2E2F0" height="30.2969" rx="2.5" ry="2.5" style="stroke:#181818;stroke-width:0.5;" width="102.7373" x="207.1118" y="650.9531"/><text fill="#000000" font-family="sans-serif" font-size="14" lengthAdjust="spacing" textLength="88.7373" x="214.1118" y="670.9482">Visualization</text><rect fill="#E2E2F0" height="30.2969" rx="2.5" ry="2.5" style="stroke:#181818;stroke-width:0.5;" width="97.5625" x="457.689" y="5"/><text fill="#000000" font-family="sans-serif" font-size="14" lengthAdjust="spacing" textLength="83.5625" x="464.689" y="24.9951">PRG_Person</text><rect fill="#E2E2F0" height="30.2969" rx="2.5" ry="2.5" style="stroke:#181818;stroke-width:0.5;" width="97.5625" x="457.689" y="650.9531"/><text fill="#000000" font-family="sans-serif" font-size="14" lengthAdjust="spacing" textLength="83.5625" x="464.689" y="670.9482">PRG_Person</text><rect fill="#E2E2F0" height="30.2969" rx="2.5" ry="2.5" style="stroke:#181818;stroke-width:0.5;" width="42.2256" x="607.9854" y="5"/><text fill="#000000" font-family="sans-serif" font-size="14" lengthAdjust="spacing" textLength="28.2256" x="614.9854" y="24.9951">GVL</text><rect fill="#E2E2F0" height="30.2969" rx="2.5" ry="2.5" style="stroke:#181818;stroke-width:0.5;" width="42.2256" x="607.9854" y="650.9531"/><text fill="#000000" font-family="sans-serif" font-size="14" lengthAdjust="spacing" textLength="28.2256" x="614.9854" y="670.9482">GVL</text><rect fill="#E2E2F0" height="30.2969" rx="2.5" ry="2.5" style="stroke:#181818;stroke-width:0.5;" width="134.251" x="700.2686" y="5"/><text fill="#000000" font-family="sans-serif" font-size="14" lengthAdjust="spacing" textLength="120.251" x="707.2686" y="24.9951">Prepare_Machine</text><rect fill="#E2E2F0" height="30.2969" rx="2.5" ry="2.5" style="stroke:#181818;stroke-width:0.5;" width="134.251" x="700.2686" y="650.9531"/><text fill="#000000" font-family="sans-serif" font-size="14" lengthAdjust="spacing" textLength="120.251" x="707.2686" y="670.9482">Prepare_Machine</text><rect fill="#E2E2F0" height="30.2969" rx="2.5" ry="2.5" style="stroke:#181818;stroke-width:0.5;" width="165.5322" x="864.1899" y="5"/><text fill="#000000" font-family="sans-serif" font-size="14" lengthAdjust="spacing" textLength="151.5322" x="871.1899" y="24.9951">Function_Refill_Water</text><rect fill="#E2E2F0" height="30.2969" rx="2.5" ry="2.5" style="stroke:#181818;stroke-width:0.5;" width="165.5322" x="864.1899" y="650.9531"/><text fill="#000000" font-family="sans-serif" font-size="14" lengthAdjust="spacing" textLength="151.5322" x="871.1899" y="670.9482">Function_Refill_Water</text><rect fill="#FF0000" height="116.5313" style="stroke:#181818;stroke-width:1.0;" width="10" x="253.4805" y="67.4297"/><rect fill="#FF0000" height="116.5313" style="stroke:#181818;stroke-width:1.0;" width="10" x="253.4805" y="400.8906"/><rect fill="#0000FF" height="58.2656" style="stroke:#181818;stroke-width:1.0;" width="10" x="501.4702" y="96.5625"/><rect fill="#0000FF" height="58.2656" style="stroke:#181818;stroke-width:1.0;" width="10" x="501.4702" y="430.0234"/><rect fill="#FFFF00" height="246.0625" style="stroke:#181818;stroke-width:1.0;" width="10" x="941.9561" y="329.625"/><polygon fill="#181818" points="241.4805,63.4297,251.4805,67.4297,241.4805,71.4297,245.4805,67.4297" style="stroke:#181818;stroke-width:1.0;"/><line style="stroke:#181818;stroke-width:1.0;" x1="27.9551" x2="247.4805" y1="67.4297" y2="67.4297"/><text fill="#000000" font-family="sans-serif" font-size="13" lengthAdjust="spacing" textLength="129.1494" x="34.9551" y="62.3638">Push 'Power' button</text><polygon fill="#181818" points="489.4702,92.5625,499.4702,96.5625,489.4702,100.5625,493.4702,96.5625" style="stroke:#181818;stroke-width:1.0;"/><line style="stroke:#181818;stroke-width:1.0;" x1="263.4805" x2="495.4702" y1="96.5625" y2="96.5625"/><text fill="#000000" font-family="sans-serif" font-size="13" lengthAdjust="spacing" textLength="125.9565" x="270.4805" y="91.4966">Change var 'Power'</text><polygon fill="#181818" points="617.0981,121.6953,627.0981,125.6953,617.0981,129.6953,621.0981,125.6953" style="stroke:#181818;stroke-width:1.0;"/><line style="stroke:#181818;stroke-width:1.0;" x1="511.4702" x2="623.0981" y1="125.6953" y2="125.6953"/><text fill="#000000" font-family="sans-serif" font-size="13" lengthAdjust="spacing" textLength="93.6279" x="518.4702" y="120.6294">Power = TRUE</text><polygon fill="#181818" points="274.4805,150.8281,264.4805,154.8281,274.4805,158.8281,270.4805,154.8281" style="stroke:#181818;stroke-width:1.0;"/><line style="stroke:#181818;stroke-width:1.0;stroke-dasharray:2.0,2.0;" x1="268.4805" x2="505.4702" y1="154.8281" y2="154.8281"/><text fill="#000000" font-family="sans-serif" font-size="13" lengthAdjust="spacing" textLength="146.4785" x="280.4805" y="149.7622">Button 'Power' pushed</text><polygon fill="#181818" points="38.9551,179.9609,28.9551,183.9609,38.9551,187.9609,34.9551,183.9609" style="stroke:#181818;stroke-width:1.0;"/><line style="stroke:#181818;stroke-width:1.0;stroke-dasharray:2.0,2.0;" x1="32.9551" x2="257.4805" y1="183.9609" y2="183.9609"/><text fill="#000000" font-family="sans-serif" font-size="13" lengthAdjust="spacing" textLength="153.3403" x="44.9551" y="178.895">Button 'Power' changes</text><polygon fill="#181818" points="269.4805,209.0938,259.4805,213.0938,269.4805,217.0938,265.4805,213.0938" style="stroke:#181818;stroke-width:1.0;"/><line style="stroke:#181818;stroke-width:1.0;" x1="263.4805" x2="766.394" y1="213.0938" y2="213.0938"/><text fill="#000000" font-family="sans-serif" font-size="13" lengthAdjust="spacing" textLength="152.3438" x="275.4805" y="208.0278">Indicator 'LED' turns on</text><polygon fill="#181818" points="640.0981,238.2266,630.0981,242.2266,640.0981,246.2266,636.0981,242.2266" style="stroke:#181818;stroke-width:1.0;"/><line style="stroke:#181818;stroke-width:1.0;" x1="634.0981" x2="766.394" y1="242.2266" y2="242.2266"/><text fill="#000000" font-family="sans-serif" font-size="13" lengthAdjust="spacing" textLength="114.2959" x="646.0981" y="237.1606">Check Waterlevel</text><polygon fill="#181818" points="755.394,267.3594,765.394,271.3594,755.394,275.3594,759.394,271.3594" style="stroke:#181818;stroke-width:1.0;"/><line style="stroke:#181818;stroke-width:1.0;stroke-dasharray:2.0,2.0;" x1="629.0981" x2="761.394" y1="271.3594" y2="271.3594"/><text fill="#000000" font-family="sans-serif" font-size="13" lengthAdjust="spacing" textLength="108.4941" x="636.0981" y="266.2935">Waterlevel =&lt; 0</text><polygon fill="#181818" points="269.4805,296.4922,259.4805,300.4922,269.4805,304.4922,265.4805,300.4922" style="stroke:#181818;stroke-width:1.0;"/><line style="stroke:#181818;stroke-width:1.0;" x1="263.4805" x2="766.394" y1="300.4922" y2="300.4922"/><text fill="#000000" font-family="sans-serif" font-size="13" lengthAdjust="spacing" textLength="187.9351" x="275.4805" y="295.4263">Indicator 'LED' starts to blink</text><polygon fill="#181818" points="929.9561,325.625,939.9561,329.625,929.9561,333.625,933.9561,329.625" style="stroke:#181818;stroke-width:1.0;"/><line style="stroke:#181818;stroke-width:1.0;" x1="767.394" x2="935.9561" y1="329.625" y2="329.625"/><text fill="#000000" font-family="sans-serif" font-size="13" lengthAdjust="spacing" textLength="155.562" x="774.394" y="324.5591">Call function refill water</text><line style="stroke:#181818;stroke-width:1.0;" x1="951.9561" x2="993.9561" y1="358.7578" y2="358.7578"/><line style="stroke:#181818;stroke-width:1.0;" x1="993.9561" x2="993.9561" y1="358.7578" y2="371.7578"/><line style="stroke:#181818;stroke-width:1.0;" x1="952.9561" x2="993.9561" y1="371.7578" y2="371.7578"/><polygon fill="#181818" points="962.9561,367.7578,952.9561,371.7578,962.9561,375.7578,958.9561,371.7578" style="stroke:#181818;stroke-width:1.0;"/><text fill="#000000" font-family="sans-serif" font-size="13" lengthAdjust="spacing" textLength="84.4238" x="958.9561" y="353.6919">Wait for refill</text><polygon fill="#181818" points="241.4805,396.8906,251.4805,400.8906,241.4805,404.8906,245.4805,400.8906" style="stroke:#181818;stroke-width:1.0;"/><line style="stroke:#181818;stroke-width:1.0;" x1="27.9551" x2="247.4805" y1="400.8906" y2="400.8906"/><text fill="#000000" font-family="sans-serif" font-size="13" lengthAdjust="spacing" textLength="177.3345" x="34.9551" y="395.8247">Push 'WaterRefilled' button</text><polygon fill="#181818" points="489.4702,426.0234,499.4702,430.0234,489.4702,434.0234,493.4702,430.0234" style="stroke:#181818;stroke-width:1.0;"/><line style="stroke:#181818;stroke-width:1.0;" x1="263.4805" x2="495.4702" y1="430.0234" y2="430.0234"/><text fill="#000000" font-family="sans-serif" font-size="13" lengthAdjust="spacing" textLength="174.1416" x="270.4805" y="424.9575">Change var 'WaterRefilled'</text><polygon fill="#181818" points="929.9561,455.1563,939.9561,459.1563,929.9561,463.1563,933.9561,459.1563" style="stroke:#181818;stroke-width:1.0;"/><line style="stroke:#181818;stroke-width:1.0;" x1="511.4702" x2="935.9561" y1="459.1563" y2="459.1563"/><text fill="#000000" font-family="sans-serif" font-size="13" lengthAdjust="spacing" textLength="141.813" x="518.4702" y="454.0903">WaterRefilled = TRUE</text><polygon fill="#181818" points="274.4805,484.2891,264.4805,488.2891,274.4805,492.2891,270.4805,488.2891" style="stroke:#181818;stroke-width:1.0;"/><line style="stroke:#181818;stroke-width:1.0;" x1="268.4805" x2="505.4702" y1="488.2891" y2="488.2891"/><text fill="#000000" font-family="sans-serif" font-size="13" lengthAdjust="spacing" textLength="194.6636" x="280.4805" y="483.2231">Button 'WaterRefilled' pushed</text><polygon fill="#181818" points="38.9551,513.4219,28.9551,517.4219,38.9551,521.4219,34.9551,517.4219" style="stroke:#181818;stroke-width:1.0;"/><line style="stroke:#181818;stroke-width:1.0;" x1="32.9551" x2="257.4805" y1="517.4219" y2="517.4219"/><text fill="#000000" font-family="sans-serif" font-size="13" lengthAdjust="spacing" textLength="201.5254" x="44.9551" y="512.356">Button 'WaterRefilled' changes</text><polygon fill="#181818" points="640.0981,542.5547,630.0981,546.5547,640.0981,550.5547,636.0981,546.5547" style="stroke:#181818;stroke-width:1.0;"/><line style="stroke:#181818;stroke-width:1.0;" x1="634.0981" x2="940.9561" y1="546.5547" y2="546.5547"/><text fill="#000000" font-family="sans-serif" font-size="13" lengthAdjust="spacing" textLength="97.6016" x="646.0981" y="541.4888">Waterlevel = 4</text><polygon fill="#181818" points="517.4702,571.6875,507.4702,575.6875,517.4702,579.6875,513.4702,575.6875" style="stroke:#181818;stroke-width:1.0;"/><line style="stroke:#181818;stroke-width:1.0;" x1="511.4702" x2="945.9561" y1="575.6875" y2="575.6875"/><text fill="#000000" font-family="sans-serif" font-size="13" lengthAdjust="spacing" textLength="147.1895" x="523.4702" y="570.6216">WaterRefilled = FALSE</text><polygon fill="#181818" points="269.4805,600.8203,259.4805,604.8203,269.4805,608.8203,265.4805,604.8203" style="stroke:#181818;stroke-width:1.0;"/><line style="stroke:#181818;stroke-width:1.0;" x1="263.4805" x2="766.394" y1="604.8203" y2="604.8203"/><text fill="#000000" font-family="sans-serif" font-size="13" lengthAdjust="spacing" textLength="152.9531" x="275.4805" y="599.7544">Indicator 'LED' stays on</text><polygon fill="#181818" points="269.4805,629.9531,259.4805,633.9531,269.4805,637.9531,265.4805,633.9531" style="stroke:#181818;stroke-width:1.0;"/><line style="stroke:#181818;stroke-width:1.0;" x1="263.4805" x2="505.4702" y1="633.9531" y2="633.9531"/><text fill="#000000" font-family="sans-serif" font-size="13" lengthAdjust="spacing" textLength="223.9897" x="275.4805" y="628.8872">Button 'WaterRefilled' deactivated</text><!--SRC=[hLFBJiCm4BpxArRgeISa3fmgYaJRj48A8Wga5QV8JRR4gkLKjjCAlXx71UAa3e-A77TtPcV7aqIXX8iRM39LKSxUg6Qb645KgGA6KNb0EOHrfNKf2CqqsrEDxLaOnC6Cj4k6BueNQOHIrMJJWeeNX3sLdvGDLpC7WqcO1CGf69h5CZHYQWoCuIdkz4zrJwpKB-KxSmRc94VVlgvemvOODqv8CYjVkInj98aaxgZ4z9vc1HFeyVDEv2oZkZGEXC5i2BgIGe4nrOUrHqyBpBQmCjianproOgfMOmSmScPWV0sNPwXHcagjG9UmvanilGVDAv7Lw3J63UCyjLkDJCevR3vw86qF3dMlUMCl50RFGHW-h8Y_sxznHPc6ZT5-N4RCbtmNOWixKc3-ls5kK_ywrBs7EMo-kFUclNFYdrBV3Ns7wwVmzp-VJR6RJRZg7tOTxlemlmqV0rU0b-MysB_Qd_0Saniz-Ji0]--></g></svg>