<?xml version="1.0" encoding="UTF-8" standalone="no"?>
<!DOCTYPE svg PUBLIC "-//W3C//DTD SVG 1.1//EN"
 "http://www.w3.org/Graphics/SVG/1.1/DTD/svg11.dtd">
<!-- Generated by graphviz version 12.0.0 (20240704.0754)
 -->
<!-- Title: State Pages: 1 -->
<svg width="1359pt" height="205pt"
 viewBox="0.00 0.00 1359.04 205.16" xmlns="http://www.w3.org/2000/svg" xmlns:xlink="http://www.w3.org/1999/xlink">
<g id="graph0" class="graph" transform="scale(1 1) rotate(0) translate(4 201.16)">
<title>State</title>
<polygon fill="white" stroke="none" points="-4,4 -4,-201.16 1355.04,-201.16 1355.04,4 -4,4"/>
<!-- STANDBY -->
<g id="node1" class="node">
<title>STANDBY</title>
<ellipse fill="none" stroke="black" cx="60.01" cy="-65.05" rx="60.01" ry="60.01"/>
<text text-anchor="middle" x="60.01" y="-60.15" font-family="Times,serif" font-size="14.00">STANDBY</text>
</g>
<!-- CHOOSE_AMOUNT_OF_CUPS -->
<g id="node3" class="node">
<title>CHOOSE_AMOUNT_OF_CUPS</title>
<ellipse fill="none" stroke="black" cx="443.13" cy="-137.05" rx="60.1" ry="60.1"/>
<text text-anchor="middle" x="443.13" y="-157.35" font-family="Times,serif" font-size="14.00">CHOOSE</text>
<text text-anchor="middle" x="443.13" y="-140.55" font-family="Times,serif" font-size="14.00">AMOUNT</text>
<text text-anchor="middle" x="443.13" y="-123.75" font-family="Times,serif" font-size="14.00">OF</text>
<text text-anchor="middle" x="443.13" y="-106.95" font-family="Times,serif" font-size="14.00">CUPS</text>
</g>
<!-- STANDBY&#45;&gt;CHOOSE_AMOUNT_OF_CUPS -->
<g id="edge1" class="edge">
<title>STANDBY&#45;&gt;CHOOSE_AMOUNT_OF_CUPS</title>
<path fill="none" stroke="black" d="M119.31,-76.07C187.4,-88.93 299.94,-110.19 372.54,-123.91"/>
<polygon fill="black" stroke="black" points="371.87,-127.34 382.35,-125.76 373.17,-120.46 371.87,-127.34"/>
<text text-anchor="middle" x="251.52" y="-124.55" font-family="Times,serif" font-size="14.00">Enough water and pad is placed</text>
</g>
<!-- HEATING_WATER -->
<g id="node2" class="node">
<title>HEATING_WATER</title>
<ellipse fill="none" stroke="black" cx="786.33" cy="-137.05" rx="60.1" ry="60.1"/>
<text text-anchor="middle" x="786.33" y="-140.55" font-family="Times,serif" font-size="14.00">HEATING</text>
<text text-anchor="middle" x="786.33" y="-123.75" font-family="Times,serif" font-size="14.00">WATER</text>
</g>
<!-- WAIT -->
<g id="node4" class="node">
<title>WAIT</title>
<ellipse fill="none" stroke="black" cx="1029.69" cy="-125.05" rx="37.25" ry="37.25"/>
<text text-anchor="middle" x="1029.69" y="-120.15" font-family="Times,serif" font-size="14.00">WAIT</text>
</g>
<!-- HEATING_WATER&#45;&gt;WAIT -->
<g id="edge3" class="edge">
<title>HEATING_WATER&#45;&gt;WAIT</title>
<path fill="none" stroke="black" d="M846.68,-134.1C887.92,-132.05 942.17,-129.36 980.68,-127.44"/>
<polygon fill="black" stroke="black" points="980.77,-130.94 990.58,-126.95 980.42,-123.95 980.77,-130.94"/>
<text text-anchor="middle" x="919.44" y="-136.55" font-family="Times,serif" font-size="14.00">Water is heated</text>
</g>
<!-- CHOOSE_AMOUNT_OF_CUPS&#45;&gt;HEATING_WATER -->
<g id="edge2" class="edge">
<title>CHOOSE_AMOUNT_OF_CUPS&#45;&gt;HEATING_WATER</title>
<path fill="none" stroke="black" d="M503.56,-137.05C562.34,-137.05 652.3,-137.05 714.69,-137.05"/>
<polygon fill="black" stroke="black" points="714.5,-140.55 724.5,-137.05 714.5,-133.55 714.5,-140.55"/>
<text text-anchor="middle" x="614.73" y="-140.55" font-family="Times,serif" font-size="14.00">Amount of cups is choosen</text>
</g>
<!-- COFFEE_FINISHED -->
<g id="node5" class="node">
<title>COFFEE_FINISHED</title>
<ellipse fill="none" stroke="black" cx="1285.99" cy="-65.05" rx="65.05" ry="65.05"/>
<text text-anchor="middle" x="1285.99" y="-68.55" font-family="Times,serif" font-size="14.00">COFFEE</text>
<text text-anchor="middle" x="1285.99" y="-51.75" font-family="Times,serif" font-size="14.00">FINISHED</text>
</g>
<!-- WAIT&#45;&gt;COFFEE_FINISHED -->
<g id="edge4" class="edge">
<title>WAIT&#45;&gt;COFFEE_FINISHED</title>
<path fill="none" stroke="black" d="M1066.31,-116.65C1103.65,-107.84 1163.37,-93.75 1210.98,-82.52"/>
<polygon fill="black" stroke="black" points="1211.77,-85.92 1220.7,-80.22 1210.16,-79.11 1211.77,-85.92"/>
<text text-anchor="middle" x="1143.93" y="-115.55" font-family="Times,serif" font-size="14.00">Coffee is brewed</text>
</g>
<!-- COFFEE_FINISHED&#45;&gt;STANDBY -->
<g id="edge5" class="edge">
<title>COFFEE_FINISHED&#45;&gt;STANDBY</title>
<path fill="none" stroke="black" d="M1220.78,-58.78C1169.41,-54.29 1095.49,-49.05 1030.69,-49.05 442.13,-49.05 442.13,-49.05 442.13,-49.05 333.62,-49.05 207.9,-55.61 131.44,-60.33"/>
<polygon fill="black" stroke="black" points="131.34,-56.83 121.58,-60.94 131.77,-63.81 131.34,-56.83"/>
</g>
</g>
</svg>
