<?xml version="1.0" encoding="UTF-8" standalone="no"?>
<!DOCTYPE svg PUBLIC "-//W3C//DTD SVG 1.1//EN"
 "http://www.w3.org/Graphics/SVG/1.1/DTD/svg11.dtd">
<!-- Generated by graphviz version 12.0.0 (20240704.0754)
 -->
<!-- Title: State Pages: 1 -->
<svg width="905pt" height="478pt"
 viewBox="0.00 0.00 905.02 478.36" xmlns="http://www.w3.org/2000/svg" xmlns:xlink="http://www.w3.org/1999/xlink">
<g id="graph0" class="graph" transform="scale(1 1) rotate(0) translate(4 474.36)">
<title>State</title>
<polygon fill="white" stroke="none" points="-4,4 -4,-474.36 901.02,-474.36 901.02,4 -4,4"/>
<!-- OFF -->
<g id="node1" class="node">
<title>OFF</title>
<ellipse fill="none" stroke="black" cx="31.73" cy="-254.77" rx="31.73" ry="31.73"/>
<text text-anchor="middle" x="31.73" y="-249.87" font-family="Times,serif" font-size="14.00">OFF</text>
</g>
<!-- STANDBY -->
<g id="node4" class="node">
<title>STANDBY</title>
<ellipse fill="none" stroke="black" cx="211.47" cy="-254.77" rx="60.01" ry="60.01"/>
<text text-anchor="middle" x="211.47" y="-249.87" font-family="Times,serif" font-size="14.00">STANDBY</text>
</g>
<!-- OFF&#45;&gt;STANDBY -->
<g id="edge1" class="edge">
<title>OFF&#45;&gt;STANDBY</title>
<path fill="none" stroke="black" d="M63.69,-254.77C84.75,-254.77 113.5,-254.77 139.97,-254.77"/>
<polygon fill="black" stroke="black" points="139.63,-258.27 149.63,-254.77 139.63,-251.27 139.63,-258.27"/>
<text text-anchor="middle" x="107.46" y="-258.27" font-family="Times,serif" font-size="14.00">turn on</text>
</g>
<!-- CLEANING_MODE -->
<g id="node2" class="node">
<title>CLEANING_MODE</title>
<ellipse fill="none" stroke="black" cx="547.98" cy="-401.77" rx="68.59" ry="68.59"/>
<text text-anchor="middle" x="547.98" y="-405.27" font-family="Times,serif" font-size="14.00">CLEANING</text>
<text text-anchor="middle" x="547.98" y="-388.47" font-family="Times,serif" font-size="14.00">MODE</text>
</g>
<!-- CLEANING_MODE&#45;&gt;STANDBY -->
<g id="edge9" class="edge">
<title>CLEANING_MODE&#45;&gt;STANDBY</title>
<path fill="none" stroke="black" d="M490.71,-363.25C478.4,-355.66 465.24,-348.15 452.48,-341.97 383.38,-308.52 361.48,-311.42 289.48,-284.77 285.8,-283.41 282.03,-282 278.23,-280.56"/>
<polygon fill="black" stroke="black" points="279.5,-277.3 268.91,-277 277,-283.84 279.5,-277.3"/>
<text text-anchor="middle" x="370.98" y="-345.27" font-family="Times,serif" font-size="14.00">Descaled</text>
</g>
<!-- ERROR -->
<g id="node3" class="node">
<title>ERROR</title>
<ellipse fill="none" stroke="black" cx="547.98" cy="-267.77" rx="47.59" ry="47.59"/>
<text text-anchor="middle" x="547.98" y="-262.87" font-family="Times,serif" font-size="14.00">ERROR</text>
</g>
<!-- ERROR&#45;&gt;STANDBY -->
<g id="edge7" class="edge">
<title>ERROR&#45;&gt;STANDBY</title>
<path fill="none" stroke="black" d="M503.46,-250.41C487.67,-244.97 469.52,-239.68 452.48,-236.97 380.93,-225.6 361.46,-228.76 289.48,-236.97 286.68,-237.29 283.83,-237.67 280.96,-238.11"/>
<polygon fill="black" stroke="black" points="280.59,-234.62 271.33,-239.76 281.77,-241.52 280.59,-234.62"/>
<text text-anchor="middle" x="370.98" y="-240.27" font-family="Times,serif" font-size="14.00">Water added</text>
</g>
<!-- STANDBY&#45;&gt;OFF -->
<g id="edge2" class="edge">
<title>STANDBY&#45;&gt;OFF</title>
<path fill="none" stroke="black" d="M153.77,-236.75C131.19,-231.89 105.02,-229.15 81.46,-233.97 78.06,-234.67 74.59,-235.61 71.17,-236.71"/>
<polygon fill="black" stroke="black" points="70.04,-233.4 61.87,-240.15 72.46,-239.97 70.04,-233.4"/>
<text text-anchor="middle" x="107.46" y="-237.27" font-family="Times,serif" font-size="14.00">turn off</text>
</g>
<!-- STANDBY&#45;&gt;CLEANING_MODE -->
<g id="edge8" class="edge">
<title>STANDBY&#45;&gt;CLEANING_MODE</title>
<path fill="none" stroke="black" d="M238.85,-308.55C251.43,-328.69 268.39,-349.81 289.48,-362.77 342.9,-395.58 413.98,-404.29 467.92,-405.38"/>
<polygon fill="black" stroke="black" points="467.61,-408.88 477.65,-405.49 467.69,-401.88 467.61,-408.88"/>
<text text-anchor="middle" x="370.98" y="-407.27" font-family="Times,serif" font-size="14.00">Descaling</text>
</g>
<!-- STANDBY&#45;&gt;ERROR -->
<g id="edge6" class="edge">
<title>STANDBY&#45;&gt;ERROR</title>
<path fill="none" stroke="black" d="M271.89,-257.08C333.09,-259.46 427.88,-263.14 488.67,-265.5"/>
<polygon fill="black" stroke="black" points="488.34,-268.99 498.47,-265.88 488.62,-262 488.34,-268.99"/>
<text text-anchor="middle" x="370.98" y="-267.27" font-family="Times,serif" font-size="14.00">Water shortage</text>
</g>
<!-- HEATING_WATER -->
<g id="node5" class="node">
<title>HEATING_WATER</title>
<ellipse fill="none" stroke="black" cx="547.98" cy="-141.77" rx="60.1" ry="60.1"/>
<text text-anchor="middle" x="547.98" y="-145.27" font-family="Times,serif" font-size="14.00">HEATING</text>
<text text-anchor="middle" x="547.98" y="-128.47" font-family="Times,serif" font-size="14.00">WATER</text>
</g>
<!-- STANDBY&#45;&gt;HEATING_WATER -->
<g id="edge3" class="edge">
<title>STANDBY&#45;&gt;HEATING_WATER</title>
<path fill="none" stroke="black" d="M262.37,-222.37C271.18,-217.44 280.44,-212.75 289.48,-208.97 350.74,-183.37 424.37,-165.33 477.17,-154.44"/>
<polygon fill="black" stroke="black" points="477.86,-157.87 486.96,-152.45 476.47,-151.01 477.86,-157.87"/>
<text text-anchor="middle" x="370.98" y="-213.27" font-family="Times,serif" font-size="14.00">Choose amount of cups</text>
</g>
<!-- RUNNING -->
<g id="node6" class="node">
<title>RUNNING</title>
<ellipse fill="none" stroke="black" cx="834.25" cy="-62.77" rx="62.77" ry="62.77"/>
<text text-anchor="middle" x="834.25" y="-57.87" font-family="Times,serif" font-size="14.00">RUNNING</text>
</g>
<!-- HEATING_WATER&#45;&gt;RUNNING -->
<g id="edge4" class="edge">
<title>HEATING_WATER&#45;&gt;RUNNING</title>
<path fill="none" stroke="black" d="M606.17,-125.88C651.29,-113.34 714.46,-95.78 762.72,-82.37"/>
<polygon fill="black" stroke="black" points="763.56,-85.77 772.25,-79.72 761.68,-79.03 763.56,-85.77"/>
<text text-anchor="middle" x="698.48" y="-118.27" font-family="Times,serif" font-size="14.00">Water is heated</text>
</g>
<!-- RUNNING&#45;&gt;STANDBY -->
<g id="edge5" class="edge">
<title>RUNNING&#45;&gt;STANDBY</title>
<path fill="none" stroke="black" d="M772.04,-51.65C698.95,-40.63 573.62,-28.96 470.48,-55.97 381.2,-79.36 359.71,-97.89 289.48,-157.77 276.33,-168.99 263.84,-182.72 252.9,-196.29"/>
<polygon fill="black" stroke="black" points="250.3,-193.94 246.88,-203.97 255.8,-198.26 250.3,-193.94"/>
<text text-anchor="middle" x="547.98" y="-60.27" font-family="Times,serif" font-size="14.00">Coffee has been made</text>
</g>
</g>
</svg>
