<svg xmlns="http://www.w3.org/2000/svg" xmlns:xlink="http://www.w3.org/1999/xlink" contentStyleType="text/css" height="645px" preserveAspectRatio="none" style="width:1016px;height:645px;background:#FFFFFF;" version="1.1" viewBox="0 0 1016 645" width="1016px" zoomAndPan="magnify"><defs/><g><rect fill="#FF0000" height="116.5313" style="stroke:#181818;stroke-width:1.0;" width="10" x="253.4805" y="67.4297"/><rect fill="#FF0000" height="116.5313" style="stroke:#181818;stroke-width:1.0;" width="10" x="253.4805" y="358.7578"/><rect fill="#0000FF" height="58.2656" style="stroke:#181818;stroke-width:1.0;" width="10" x="501.4702" y="96.5625"/><rect fill="#0000FF" height="58.2656" style="stroke:#181818;stroke-width:1.0;" width="10" x="501.4702" y="387.8906"/><rect fill="#0000FF" height="29.1328" style="stroke:#181818;stroke-width:1.0;" width="10" x="501.4702" y="562.6875"/><rect fill="#FFFF00" height="233.0625" style="stroke:#181818;stroke-width:1.0;" width="10" x="922.2856" y="300.4922"/><line style="stroke:#181818;stroke-width:0.5;stroke-dasharray:5.0,5.0;" x1="27" x2="27" y1="36.2969" y2="609.8203"/><line style="stroke:#181818;stroke-width:0.5;stroke-dasharray:5.0,5.0;" x1="258.1118" x2="258.1118" y1="36.2969" y2="609.8203"/><line style="stroke:#181818;stroke-width:0.5;stroke-dasharray:5.0,5.0;" x1="505.689" x2="505.689" y1="36.2969" y2="609.8203"/><line style="stroke:#181818;stroke-width:0.5;stroke-dasharray:5.0,5.0;" x1="628.9854" x2="628.9854" y1="36.2969" y2="609.8203"/><line style="stroke:#181818;stroke-width:0.5;stroke-dasharray:5.0,5.0;" x1="767.2686" x2="767.2686" y1="36.2969" y2="609.8203"/><line style="stroke:#181818;stroke-width:0.5;stroke-dasharray:5.0,5.0;" x1="926.5195" x2="926.5195" y1="36.2969" y2="609.8203"/><rect fill="#E2E2F0" height="30.2969" rx="2.5" ry="2.5" style="stroke:#181818;stroke-width:0.5;" width="45.9102" x="5" y="5"/><text fill="#000000" font-family="sans-serif" font-size="14" lengthAdjust="spacing" textLength="31.9102" x="12" y="24.9951">User</text><rect fill="#E2E2F0" height="30.2969" rx="2.5" ry="2.5" style="stroke:#181818;stroke-width:0.5;" width="45.9102" x="5" y="608.8203"/><text fill="#000000" font-family="sans-serif" font-size="14" lengthAdjust="spacing" textLength="31.9102" x="12" y="628.8154">User</text><rect fill="#E2E2F0" height="30.2969" rx="2.5" ry="2.5" style="stroke:#181818;stroke-width:0.5;" width="102.7373" x="207.1118" y="5"/><text fill="#000000" font-family="sans-serif" font-size="14" lengthAdjust="spacing" textLength="88.7373" x="214.1118" y="24.9951">Visualization</text><rect fill="#E2E2F0" height="30.2969" rx="2.5" ry="2.5" style="stroke:#181818;stroke-width:0.5;" width="102.7373" x="207.1118" y="608.8203"/><text fill="#000000" font-family="sans-serif" font-size="14" lengthAdjust="spacing" textLength="88.7373" x="214.1118" y="628.8154">Visualization</text><rect fill="#E2E2F0" height="30.2969" rx="2.5" ry="2.5" style="stroke:#181818;stroke-width:0.5;" width="97.5625" x="457.689" y="5"/><text fill="#000000" font-family="sans-serif" font-size="14" lengthAdjust="spacing" textLength="83.5625" x="464.689" y="24.9951">PRG_Person</text><rect fill="#E2E2F0" height="30.2969" rx="2.5" ry="2.5" style="stroke:#181818;stroke-width:0.5;" width="97.5625" x="457.689" y="608.8203"/><text fill="#000000" font-family="sans-serif" font-size="14" lengthAdjust="spacing" textLength="83.5625" x="464.689" y="628.8154">PRG_Person</text><rect fill="#E2E2F0" height="30.2969" rx="2.5" ry="2.5" style="stroke:#181818;stroke-width:0.5;" width="42.2256" x="607.9854" y="5"/><text fill="#000000" font-family="sans-serif" font-size="14" lengthAdjust="spacing" textLength="28.2256" x="614.9854" y="24.9951">GVL</text><rect fill="#E2E2F0" height="30.2969" rx="2.5" ry="2.5" style="stroke:#181818;stroke-width:0.5;" width="42.2256" x="607.9854" y="608.8203"/><text fill="#000000" font-family="sans-serif" font-size="14" lengthAdjust="spacing" textLength="28.2256" x="614.9854" y="628.8154">GVL</text><rect fill="#E2E2F0" height="30.2969" rx="2.5" ry="2.5" style="stroke:#181818;stroke-width:0.5;" width="134.251" x="700.2686" y="5"/><text fill="#000000" font-family="sans-serif" font-size="14" lengthAdjust="spacing" textLength="120.251" x="707.2686" y="24.9951">Prepare_Machine</text><rect fill="#E2E2F0" height="30.2969" rx="2.5" ry="2.5" style="stroke:#181818;stroke-width:0.5;" width="134.251" x="700.2686" y="608.8203"/><text fill="#000000" font-family="sans-serif" font-size="14" lengthAdjust="spacing" textLength="120.251" x="707.2686" y="628.8154">Prepare_Machine</text><rect fill="#E2E2F0" height="30.2969" rx="2.5" ry="2.5" style="stroke:#181818;stroke-width:0.5;" width="165.5322" x="844.5195" y="5"/><text fill="#000000" font-family="sans-serif" font-size="14" lengthAdjust="spacing" textLength="151.5322" x="851.5195" y="24.9951">Function_Refill_Water</text><rect fill="#E2E2F0" height="30.2969" rx="2.5" ry="2.5" style="stroke:#181818;stroke-width:0.5;" width="165.5322" x="844.5195" y="608.8203"/><text fill="#000000" font-family="sans-serif" font-size="14" lengthAdjust="spacing" textLength="151.5322" x="851.5195" y="628.8154">Function_Refill_Water</text><rect fill="#FF0000" height="116.5313" style="stroke:#181818;stroke-width:1.0;" width="10" x="253.4805" y="67.4297"/><rect fill="#FF0000" height="116.5313" style="stroke:#181818;stroke-width:1.0;" width="10" x="253.4805" y="358.7578"/><rect fill="#0000FF" height="58.2656" style="stroke:#181818;stroke-width:1.0;" width="10" x="501.4702" y="96.5625"/><rect fill="#0000FF" height="58.2656" style="stroke:#181818;stroke-width:1.0;" width="10" x="501.4702" y="387.8906"/><rect fill="#0000FF" height="29.1328" style="stroke:#181818;stroke-width:1.0;" width="10" x="501.4702" y="562.6875"/><rect fill="#FFFF00" height="233.0625" style="stroke:#181818;stroke-width:1.0;" width="10" x="922.2856" y="300.4922"/><polygon fill="#181818" points="241.4805,63.4297,251.4805,67.4297,241.4805,71.4297,245.4805,67.4297" style="stroke:#181818;stroke-width:1.0;"/><line style="stroke:#181818;stroke-width:1.0;" x1="27.9551" x2="247.4805" y1="67.4297" y2="67.4297"/><text fill="#000000" font-family="sans-serif" font-size="13" lengthAdjust="spacing" textLength="129.1494" x="34.9551" y="62.3638">Push 'Power' button</text><polygon fill="#181818" points="489.4702,92.5625,499.4702,96.5625,489.4702,100.5625,493.4702,96.5625" style="stroke:#181818;stroke-width:1.0;"/><line style="stroke:#181818;stroke-width:1.0;" x1="263.4805" x2="495.4702" y1="96.5625" y2="96.5625"/><text fill="#000000" font-family="sans-serif" font-size="13" lengthAdjust="spacing" textLength="125.9565" x="270.4805" y="91.4966">Change var 'Power'</text><polygon fill="#181818" points="617.0981,121.6953,627.0981,125.6953,617.0981,129.6953,621.0981,125.6953" style="stroke:#181818;stroke-width:1.0;"/><line style="stroke:#181818;stroke-width:1.0;" x1="511.4702" x2="623.0981" y1="125.6953" y2="125.6953"/><text fill="#000000" font-family="sans-serif" font-size="13" lengthAdjust="spacing" textLength="93.6279" x="518.4702" y="120.6294">Power = TRUE</text><polygon fill="#181818" points="274.4805,150.8281,264.4805,154.8281,274.4805,158.8281,270.4805,154.8281" style="stroke:#181818;stroke-width:1.0;"/><line style="stroke:#181818;stroke-width:1.0;stroke-dasharray:2.0,2.0;" x1="268.4805" x2="505.4702" y1="154.8281" y2="154.8281"/><text fill="#000000" font-family="sans-serif" font-size="13" lengthAdjust="spacing" textLength="146.4785" x="280.4805" y="149.7622">Button 'Power' pushed</text><polygon fill="#181818" points="38.9551,179.9609,28.9551,183.9609,38.9551,187.9609,34.9551,183.9609" style="stroke:#181818;stroke-width:1.0;"/><line style="stroke:#181818;stroke-width:1.0;stroke-dasharray:2.0,2.0;" x1="32.9551" x2="257.4805" y1="183.9609" y2="183.9609"/><text fill="#000000" font-family="sans-serif" font-size="13" lengthAdjust="spacing" textLength="153.3403" x="44.9551" y="178.895">Button 'Power' changes</text><polygon fill="#181818" points="269.4805,209.0938,259.4805,213.0938,269.4805,217.0938,265.4805,213.0938" style="stroke:#181818;stroke-width:1.0;"/><line style="stroke:#181818;stroke-width:1.0;" x1="263.4805" x2="766.394" y1="213.0938" y2="213.0938"/><text fill="#000000" font-family="sans-serif" font-size="13" lengthAdjust="spacing" textLength="152.3438" x="275.4805" y="208.0278">Indicator 'LED' turns on</text><polygon fill="#181818" points="640.0981,238.2266,630.0981,242.2266,640.0981,246.2266,636.0981,242.2266" style="stroke:#181818;stroke-width:1.0;"/><line style="stroke:#181818;stroke-width:1.0;" x1="634.0981" x2="766.394" y1="242.2266" y2="242.2266"/><text fill="#000000" font-family="sans-serif" font-size="13" lengthAdjust="spacing" textLength="114.2959" x="646.0981" y="237.1606">Check Waterlevel</text><polygon fill="#181818" points="755.394,267.3594,765.394,271.3594,755.394,275.3594,759.394,271.3594" style="stroke:#181818;stroke-width:1.0;"/><line style="stroke:#181818;stroke-width:1.0;" x1="629.0981" x2="761.394" y1="271.3594" y2="271.3594"/><text fill="#000000" font-family="sans-serif" font-size="13" lengthAdjust="spacing" textLength="108.4941" x="636.0981" y="266.2935">Waterlevel =&lt; 0</text><polygon fill="#181818" points="910.2856,296.4922,920.2856,300.4922,910.2856,304.4922,914.2856,300.4922" style="stroke:#181818;stroke-width:1.0;"/><line style="stroke:#181818;stroke-width:1.0;" x1="767.394" x2="916.2856" y1="300.4922" y2="300.4922"/><text fill="#000000" font-family="sans-serif" font-size="13" lengthAdjust="spacing" textLength="84.4238" x="774.394" y="295.4263">Wait for refill</text><polygon fill="#181818" points="269.4805,325.625,259.4805,329.625,269.4805,333.625,265.4805,329.625" style="stroke:#181818;stroke-width:1.0;"/><line style="stroke:#181818;stroke-width:1.0;" x1="263.4805" x2="766.394" y1="329.625" y2="329.625"/><text fill="#000000" font-family="sans-serif" font-size="13" lengthAdjust="spacing" textLength="187.9351" x="275.4805" y="324.5591">Indicator 'LED' starts to blink</text><polygon fill="#181818" points="241.4805,354.7578,251.4805,358.7578,241.4805,362.7578,245.4805,358.7578" style="stroke:#181818;stroke-width:1.0;"/><line style="stroke:#181818;stroke-width:1.0;" x1="27.9551" x2="247.4805" y1="358.7578" y2="358.7578"/><text fill="#000000" font-family="sans-serif" font-size="13" lengthAdjust="spacing" textLength="177.3345" x="34.9551" y="353.6919">Push 'WaterRefilled' button</text><polygon fill="#181818" points="489.4702,383.8906,499.4702,387.8906,489.4702,391.8906,493.4702,387.8906" style="stroke:#181818;stroke-width:1.0;"/><line style="stroke:#181818;stroke-width:1.0;" x1="263.4805" x2="495.4702" y1="387.8906" y2="387.8906"/><text fill="#000000" font-family="sans-serif" font-size="13" lengthAdjust="spacing" textLength="174.1416" x="270.4805" y="382.8247">Change var 'WaterRefilled'</text><polygon fill="#181818" points="910.2856,413.0234,920.2856,417.0234,910.2856,421.0234,914.2856,417.0234" style="stroke:#181818;stroke-width:1.0;"/><line style="stroke:#181818;stroke-width:1.0;" x1="511.4702" x2="916.2856" y1="417.0234" y2="417.0234"/><text fill="#000000" font-family="sans-serif" font-size="13" lengthAdjust="spacing" textLength="141.813" x="518.4702" y="411.9575">WaterRefilled = TRUE</text><polygon fill="#181818" points="274.4805,442.1563,264.4805,446.1563,274.4805,450.1563,270.4805,446.1563" style="stroke:#181818;stroke-width:1.0;"/><line style="stroke:#181818;stroke-width:1.0;" x1="268.4805" x2="505.4702" y1="446.1563" y2="446.1563"/><text fill="#000000" font-family="sans-serif" font-size="13" lengthAdjust="spacing" textLength="194.6636" x="280.4805" y="441.0903">Button 'WaterRefilled' pushed</text><polygon fill="#181818" points="38.9551,471.2891,28.9551,475.2891,38.9551,479.2891,34.9551,475.2891" style="stroke:#181818;stroke-width:1.0;"/><line style="stroke:#181818;stroke-width:1.0;" x1="32.9551" x2="257.4805" y1="475.2891" y2="475.2891"/><text fill="#000000" font-family="sans-serif" font-size="13" lengthAdjust="spacing" textLength="201.5254" x="44.9551" y="470.2231">Button 'WaterRefilled' changes</text><polygon fill="#181818" points="640.0981,500.4219,630.0981,504.4219,640.0981,508.4219,636.0981,504.4219" style="stroke:#181818;stroke-width:1.0;"/><line style="stroke:#181818;stroke-width:1.0;" x1="634.0981" x2="921.2856" y1="504.4219" y2="504.4219"/><text fill="#000000" font-family="sans-serif" font-size="13" lengthAdjust="spacing" textLength="97.6016" x="646.0981" y="499.356">Waterlevel = 4</text><polygon fill="#181818" points="517.4702,529.5547,507.4702,533.5547,517.4702,537.5547,513.4702,533.5547" style="stroke:#181818;stroke-width:1.0;"/><line style="stroke:#181818;stroke-width:1.0;" x1="511.4702" x2="926.2856" y1="533.5547" y2="533.5547"/><text fill="#000000" font-family="sans-serif" font-size="13" lengthAdjust="spacing" textLength="147.1895" x="523.4702" y="528.4888">WaterRefilled = FALSE</text><polygon fill="#181818" points="269.4805,558.6875,259.4805,562.6875,269.4805,566.6875,265.4805,562.6875" style="stroke:#181818;stroke-width:1.0;"/><line style="stroke:#181818;stroke-width:1.0;" x1="263.4805" x2="500.4702" y1="562.6875" y2="562.6875"/><text fill="#000000" font-family="sans-serif" font-size="13" lengthAdjust="spacing" textLength="223.9897" x="275.4805" y="557.6216">Button 'WaterRefilled' deactivated</text><polygon fill="#181818" points="38.9551,587.8203,28.9551,591.8203,38.9551,595.8203,34.9551,591.8203" style="stroke:#181818;stroke-width:1.0;"/><line style="stroke:#181818;stroke-width:1.0;" x1="32.9551" x2="505.4702" y1="591.8203" y2="591.8203"/><text fill="#000000" font-family="sans-serif" font-size="13" lengthAdjust="spacing" textLength="201.5254" x="44.9551" y="586.7544">Button 'WaterRefilled' changes</text><!--SRC=[hP8nQyCm48Lt_Og339uA7Jg5fj0aJYYurBXrGYUZs9TQnCX1abtehw-iabfsv3G9NKzttxrxUh540JSFi6AoeWNxeegLV0nX9NFmml8JXGURIgcI4vegLbE5tLuOHVwST4kQ5qRB94GX6zWif_m3eQRYW6nPRH-Cfa7i4wkWCSjLeCKqCp21jwZtVgnxQgJ-Aj_hCp0Z6RhszKLhMgpTE8AaHhwqATr94WhSKu79Cqrpnj7XvnFFM4fLgHq8_Ba7gX9SWZRLDMkEdkMOxc2jjua2Qoo8hXfZk_rZgmKczt3h0YugdZOwaWYth2WICz9CCWLRhKcOSlifpduOlVj1yBA-ubgfg50IL0cRWl4T44BYKxap-tvsO_Q_-UkYpyxXe8CMpPNGmO3sJhmegFsSzbX_vPMul_SGF3jFS3VSR3lSzs7n6BpwjW0dvIgdMcXszkzTQbSx_Gq0]--></g></svg>