<svg xmlns="http://www.w3.org/2000/svg" xmlns:xlink="http://www.w3.org/1999/xlink" contentStyleType="text/css" height="700px" preserveAspectRatio="none" style="width:1093px;height:700px;background:#FFFFFF;" version="1.1" viewBox="0 0 1093 700" width="1093px" zoomAndPan="magnify"><defs/><g><rect fill="#FF0000" height="116.5313" style="stroke:#181818;stroke-width:1.0;" width="10" x="253.4805" y="67.4297"/><rect fill="#FF0000" height="116.5313" style="stroke:#181818;stroke-width:1.0;" width="10" x="253.4805" y="400.8906"/><rect fill="#0000FF" height="58.2656" style="stroke:#181818;stroke-width:1.0;" width="10" x="482.144" y="96.5625"/><rect fill="#0000FF" height="58.2656" style="stroke:#181818;stroke-width:1.0;" width="10" x="482.144" y="430.0234"/><rect fill="#FFFF00" height="288.1953" style="stroke:#181818;stroke-width:1.0;" width="10" x="922.6299" y="329.625"/><line style="stroke:#181818;stroke-width:0.5;stroke-dasharray:5.0,5.0;" x1="27" x2="27" y1="36.2969" y2="664.9531"/><line style="stroke:#181818;stroke-width:0.5;stroke-dasharray:5.0,5.0;" x1="258.1118" x2="258.1118" y1="36.2969" y2="664.9531"/><line style="stroke:#181818;stroke-width:0.5;stroke-dasharray:5.0,5.0;" x1="486.3628" x2="486.3628" y1="36.2969" y2="664.9531"/><line style="stroke:#181818;stroke-width:0.5;stroke-dasharray:5.0,5.0;" x1="609.6592" x2="609.6592" y1="36.2969" y2="664.9531"/><line style="stroke:#181818;stroke-width:0.5;stroke-dasharray:5.0,5.0;" x1="747.9424" x2="747.9424" y1="36.2969" y2="664.9531"/><line style="stroke:#181818;stroke-width:0.5;stroke-dasharray:5.0,5.0;" x1="926.8638" x2="926.8638" y1="36.2969" y2="664.9531"/><rect fill="#E2E2F0" height="30.2969" rx="2.5" ry="2.5" style="stroke:#181818;stroke-width:0.5;" width="45.9102" x="5" y="5"/><text fill="#000000" font-family="sans-serif" font-size="14" lengthAdjust="spacing" textLength="31.9102" x="12" y="24.9951">User</text><rect fill="#E2E2F0" height="30.2969" rx="2.5" ry="2.5" style="stroke:#181818;stroke-width:0.5;" width="45.9102" x="5" y="663.9531"/><text fill="#000000" font-family="sans-serif" font-size="14" lengthAdjust="spacing" textLength="31.9102" x="12" y="683.9482">User</text><rect fill="#E2E2F0" height="30.2969" rx="2.5" ry="2.5" style="stroke:#181818;stroke-width:0.5;" width="102.7373" x="207.1118" y="5"/><text fill="#000000" font-family="sans-serif" font-size="14" lengthAdjust="spacing" textLength="88.7373" x="214.1118" y="24.9951">Visualization</text><rect fill="#E2E2F0" height="30.2969" rx="2.5" ry="2.5" style="stroke:#181818;stroke-width:0.5;" width="102.7373" x="207.1118" y="663.9531"/><text fill="#000000" font-family="sans-serif" font-size="14" lengthAdjust="spacing" textLength="88.7373" x="214.1118" y="683.9482">Visualization</text><rect fill="#E2E2F0" height="30.2969" rx="2.5" ry="2.5" style="stroke:#181818;stroke-width:0.5;" width="97.5625" x="438.3628" y="5"/><text fill="#000000" font-family="sans-serif" font-size="14" lengthAdjust="spacing" textLength="83.5625" x="445.3628" y="24.9951">PRG_Person</text><rect fill="#E2E2F0" height="30.2969" rx="2.5" ry="2.5" style="stroke:#181818;stroke-width:0.5;" width="97.5625" x="438.3628" y="663.9531"/><text fill="#000000" font-family="sans-serif" font-size="14" lengthAdjust="spacing" textLength="83.5625" x="445.3628" y="683.9482">PRG_Person</text><rect fill="#E2E2F0" height="30.2969" rx="2.5" ry="2.5" style="stroke:#181818;stroke-width:0.5;" width="42.2256" x="588.6592" y="5"/><text fill="#000000" font-family="sans-serif" font-size="14" lengthAdjust="spacing" textLength="28.2256" x="595.6592" y="24.9951">GVL</text><rect fill="#E2E2F0" height="30.2969" rx="2.5" ry="2.5" style="stroke:#181818;stroke-width:0.5;" width="42.2256" x="588.6592" y="663.9531"/><text fill="#000000" font-family="sans-serif" font-size="14" lengthAdjust="spacing" textLength="28.2256" x="595.6592" y="683.9482">GVL</text><rect fill="#E2E2F0" height="30.2969" rx="2.5" ry="2.5" style="stroke:#181818;stroke-width:0.5;" width="134.251" x="680.9424" y="5"/><text fill="#000000" font-family="sans-serif" font-size="14" lengthAdjust="spacing" textLength="120.251" x="687.9424" y="24.9951">Prepare_Machine</text><rect fill="#E2E2F0" height="30.2969" rx="2.5" ry="2.5" style="stroke:#181818;stroke-width:0.5;" width="134.251" x="680.9424" y="663.9531"/><text fill="#000000" font-family="sans-serif" font-size="14" lengthAdjust="spacing" textLength="120.251" x="687.9424" y="683.9482">Prepare_Machine</text><rect fill="#E2E2F0" height="30.2969" rx="2.5" ry="2.5" style="stroke:#181818;stroke-width:0.5;" width="165.5322" x="844.8638" y="5"/><text fill="#000000" font-family="sans-serif" font-size="14" lengthAdjust="spacing" textLength="151.5322" x="851.8638" y="24.9951">Function_Refill_Water</text><rect fill="#E2E2F0" height="30.2969" rx="2.5" ry="2.5" style="stroke:#181818;stroke-width:0.5;" width="165.5322" x="844.8638" y="663.9531"/><text fill="#000000" font-family="sans-serif" font-size="14" lengthAdjust="spacing" textLength="151.5322" x="851.8638" y="683.9482">Function_Refill_Water</text><rect fill="#FF0000" height="116.5313" style="stroke:#181818;stroke-width:1.0;" width="10" x="253.4805" y="67.4297"/><rect fill="#FF0000" height="116.5313" style="stroke:#181818;stroke-width:1.0;" width="10" x="253.4805" y="400.8906"/><rect fill="#0000FF" height="58.2656" style="stroke:#181818;stroke-width:1.0;" width="10" x="482.144" y="96.5625"/><rect fill="#0000FF" height="58.2656" style="stroke:#181818;stroke-width:1.0;" width="10" x="482.144" y="430.0234"/><rect fill="#FFFF00" height="288.1953" style="stroke:#181818;stroke-width:1.0;" width="10" x="922.6299" y="329.625"/><polygon fill="#181818" points="241.4805,63.4297,251.4805,67.4297,241.4805,71.4297,245.4805,67.4297" style="stroke:#181818;stroke-width:1.0;"/><line style="stroke:#181818;stroke-width:1.0;" x1="27.9551" x2="247.4805" y1="67.4297" y2="67.4297"/><text fill="#000000" font-family="sans-serif" font-size="13" lengthAdjust="spacing" textLength="129.1494" x="34.9551" y="62.3638">Push 'Power' button</text><polygon fill="#181818" points="470.144,92.5625,480.144,96.5625,470.144,100.5625,474.144,96.5625" style="stroke:#181818;stroke-width:1.0;"/><line style="stroke:#181818;stroke-width:1.0;" x1="263.4805" x2="476.144" y1="96.5625" y2="96.5625"/><text fill="#000000" font-family="sans-serif" font-size="13" lengthAdjust="spacing" textLength="125.9565" x="270.4805" y="91.4966">Change var 'Power'</text><polygon fill="#181818" points="597.772,121.6953,607.772,125.6953,597.772,129.6953,601.772,125.6953" style="stroke:#181818;stroke-width:1.0;"/><line style="stroke:#181818;stroke-width:1.0;" x1="492.144" x2="603.772" y1="125.6953" y2="125.6953"/><text fill="#000000" font-family="sans-serif" font-size="13" lengthAdjust="spacing" textLength="93.6279" x="499.144" y="120.6294">Power = TRUE</text><polygon fill="#181818" points="274.4805,150.8281,264.4805,154.8281,274.4805,158.8281,270.4805,154.8281" style="stroke:#181818;stroke-width:1.0;"/><line style="stroke:#181818;stroke-width:1.0;stroke-dasharray:2.0,2.0;" x1="268.4805" x2="486.144" y1="154.8281" y2="154.8281"/><text fill="#000000" font-family="sans-serif" font-size="13" lengthAdjust="spacing" textLength="146.4785" x="280.4805" y="149.7622">Button 'Power' pushed</text><polygon fill="#181818" points="38.9551,179.9609,28.9551,183.9609,38.9551,187.9609,34.9551,183.9609" style="stroke:#181818;stroke-width:1.0;"/><line style="stroke:#181818;stroke-width:1.0;stroke-dasharray:2.0,2.0;" x1="32.9551" x2="257.4805" y1="183.9609" y2="183.9609"/><text fill="#000000" font-family="sans-serif" font-size="13" lengthAdjust="spacing" textLength="153.3403" x="44.9551" y="178.895">Button 'Power' changes</text><polygon fill="#181818" points="269.4805,209.0938,259.4805,213.0938,269.4805,217.0938,265.4805,213.0938" style="stroke:#181818;stroke-width:1.0;"/><line style="stroke:#181818;stroke-width:1.0;" x1="263.4805" x2="747.0679" y1="213.0938" y2="213.0938"/><text fill="#000000" font-family="sans-serif" font-size="13" lengthAdjust="spacing" textLength="152.3438" x="275.4805" y="208.0278">Indicator 'LED' turns on</text><polygon fill="#181818" points="620.772,238.2266,610.772,242.2266,620.772,246.2266,616.772,242.2266" style="stroke:#181818;stroke-width:1.0;"/><line style="stroke:#181818;stroke-width:1.0;" x1="614.772" x2="747.0679" y1="242.2266" y2="242.2266"/><text fill="#000000" font-family="sans-serif" font-size="13" lengthAdjust="spacing" textLength="114.2959" x="626.772" y="237.1606">Check Waterlevel</text><polygon fill="#181818" points="736.0679,267.3594,746.0679,271.3594,736.0679,275.3594,740.0679,271.3594" style="stroke:#181818;stroke-width:1.0;"/><line style="stroke:#181818;stroke-width:1.0;stroke-dasharray:2.0,2.0;" x1="609.772" x2="742.0679" y1="271.3594" y2="271.3594"/><text fill="#000000" font-family="sans-serif" font-size="13" lengthAdjust="spacing" textLength="108.4941" x="616.772" y="266.2935">Waterlevel =&lt; 0</text><polygon fill="#181818" points="269.4805,296.4922,259.4805,300.4922,269.4805,304.4922,265.4805,300.4922" style="stroke:#181818;stroke-width:1.0;"/><line style="stroke:#181818;stroke-width:1.0;" x1="263.4805" x2="747.0679" y1="300.4922" y2="300.4922"/><text fill="#000000" font-family="sans-serif" font-size="13" lengthAdjust="spacing" textLength="187.9351" x="275.4805" y="295.4263">Indicator 'LED' starts to blink</text><polygon fill="#181818" points="910.6299,325.625,920.6299,329.625,910.6299,333.625,914.6299,329.625" style="stroke:#181818;stroke-width:1.0;"/><line style="stroke:#181818;stroke-width:1.0;" x1="748.0679" x2="916.6299" y1="329.625" y2="329.625"/><text fill="#000000" font-family="sans-serif" font-size="13" lengthAdjust="spacing" textLength="155.562" x="755.0679" y="324.5591">Call function refill water</text><line style="stroke:#181818;stroke-width:1.0;" x1="932.6299" x2="974.6299" y1="358.7578" y2="358.7578"/><line style="stroke:#181818;stroke-width:1.0;" x1="974.6299" x2="974.6299" y1="358.7578" y2="371.7578"/><line style="stroke:#181818;stroke-width:1.0;" x1="933.6299" x2="974.6299" y1="371.7578" y2="371.7578"/><polygon fill="#181818" points="943.6299,367.7578,933.6299,371.7578,943.6299,375.7578,939.6299,371.7578" style="stroke:#181818;stroke-width:1.0;"/><text fill="#000000" font-family="sans-serif" font-size="13" lengthAdjust="spacing" textLength="84.4238" x="939.6299" y="353.6919">Wait for refill</text><polygon fill="#181818" points="241.4805,396.8906,251.4805,400.8906,241.4805,404.8906,245.4805,400.8906" style="stroke:#181818;stroke-width:1.0;"/><line style="stroke:#181818;stroke-width:1.0;" x1="27.9551" x2="247.4805" y1="400.8906" y2="400.8906"/><text fill="#000000" font-family="sans-serif" font-size="13" lengthAdjust="spacing" textLength="177.3345" x="34.9551" y="395.8247">Push 'WaterRefilled' button</text><polygon fill="#181818" points="470.144,426.0234,480.144,430.0234,470.144,434.0234,474.144,430.0234" style="stroke:#181818;stroke-width:1.0;"/><line style="stroke:#181818;stroke-width:1.0;" x1="263.4805" x2="476.144" y1="430.0234" y2="430.0234"/><text fill="#000000" font-family="sans-serif" font-size="13" lengthAdjust="spacing" textLength="174.1416" x="270.4805" y="424.9575">Change var 'WaterRefilled'</text><polygon fill="#181818" points="910.6299,455.1563,920.6299,459.1563,910.6299,463.1563,914.6299,459.1563" style="stroke:#181818;stroke-width:1.0;"/><line style="stroke:#181818;stroke-width:1.0;" x1="492.144" x2="916.6299" y1="459.1563" y2="459.1563"/><text fill="#000000" font-family="sans-serif" font-size="13" lengthAdjust="spacing" textLength="141.813" x="499.144" y="454.0903">WaterRefilled = TRUE</text><polygon fill="#181818" points="274.4805,484.2891,264.4805,488.2891,274.4805,492.2891,270.4805,488.2891" style="stroke:#181818;stroke-width:1.0;"/><line style="stroke:#181818;stroke-width:1.0;" x1="268.4805" x2="486.144" y1="488.2891" y2="488.2891"/><text fill="#000000" font-family="sans-serif" font-size="13" lengthAdjust="spacing" textLength="194.6636" x="280.4805" y="483.2231">Button 'WaterRefilled' pushed</text><polygon fill="#181818" points="38.9551,513.4219,28.9551,517.4219,38.9551,521.4219,34.9551,517.4219" style="stroke:#181818;stroke-width:1.0;"/><line style="stroke:#181818;stroke-width:1.0;" x1="32.9551" x2="257.4805" y1="517.4219" y2="517.4219"/><text fill="#000000" font-family="sans-serif" font-size="13" lengthAdjust="spacing" textLength="201.5254" x="44.9551" y="512.356">Button 'WaterRefilled' changes</text><line style="stroke:#181818;stroke-width:1.0;" x1="932.6299" x2="974.6299" y1="546.5547" y2="546.5547"/><line style="stroke:#181818;stroke-width:1.0;" x1="974.6299" x2="974.6299" y1="546.5547" y2="559.5547"/><line style="stroke:#181818;stroke-width:1.0;" x1="933.6299" x2="974.6299" y1="559.5547" y2="559.5547"/><polygon fill="#181818" points="943.6299,555.5547,933.6299,559.5547,943.6299,563.5547,939.6299,559.5547" style="stroke:#181818;stroke-width:1.0;"/><text fill="#000000" font-family="sans-serif" font-size="13" lengthAdjust="spacing" textLength="147.1895" x="939.6299" y="541.4888">WaterRefilled = FALSE</text><polygon fill="#181818" points="620.772,584.6875,610.772,588.6875,620.772,592.6875,616.772,588.6875" style="stroke:#181818;stroke-width:1.0;"/><line style="stroke:#181818;stroke-width:1.0;" x1="614.772" x2="921.6299" y1="588.6875" y2="588.6875"/><text fill="#000000" font-family="sans-serif" font-size="13" lengthAdjust="spacing" textLength="97.6016" x="626.772" y="583.6216">Waterlevel = 4</text><polygon fill="#181818" points="269.4805,613.8203,259.4805,617.8203,269.4805,621.8203,265.4805,617.8203" style="stroke:#181818;stroke-width:1.0;"/><line style="stroke:#181818;stroke-width:1.0;" x1="263.4805" x2="926.6299" y1="617.8203" y2="617.8203"/><text fill="#000000" font-family="sans-serif" font-size="13" lengthAdjust="spacing" textLength="223.9897" x="275.4805" y="612.7544">Button 'WaterRefilled' deactivated</text><polygon fill="#181818" points="269.4805,642.9531,259.4805,646.9531,269.4805,650.9531,265.4805,646.9531" style="stroke:#181818;stroke-width:1.0;"/><line style="stroke:#181818;stroke-width:1.0;" x1="263.4805" x2="747.0679" y1="646.9531" y2="646.9531"/><text fill="#000000" font-family="sans-serif" font-size="13" lengthAdjust="spacing" textLength="152.9531" x="275.4805" y="641.8872">Indicator 'LED' stays on</text><!--SRC=[hLFBJiCm4BpxArRg8ISa3fmgYaJRj48A8Wga5QV8JRR4gkLKjjCAlXx71VAeKqg5ZzwTsPdrE5OeuUeE5aoLbBCFgbaXXX2MAWSlBFOeFLYLMXU2q5Ip7TNOxeL1v4z9-yhmXT4y2L6gYcoIK_66iAFocxBcgljWC0vYdpGk3Cry4HWn5GP6y19rwiUwnrRgZ_AjiO4PoT0rholQiCLc6qSagPMlcYnj90abRgd4v96cEHFesEU3o5XATM4s4FXJ3tGfXGApL1VMcfxac6vWQQP9ZZlanDnQZHt0iD43erkula2DqbHg1Rg05MTYupGqAqLQePC8ruppn4urCYddiFwgWRGrs5Ur-esTK1Yy-a7mj2JkQl_49MKQraRxOHWn9puLOWixK63sls5kKvyTwbvZ3JPNt7lJth7ufzHtGz_X-Yty5pnVs-NiFdZs-rdiNsWc76xwcyzRJssbjICdwsMVwRtwsfy0]--></g></svg>