<?xml version="1.0" encoding="UTF-8" standalone="no"?>
<!DOCTYPE svg PUBLIC "-//W3C//DTD SVG 1.1//EN"
 "http://www.w3.org/Graphics/SVG/1.1/DTD/svg11.dtd">
<!-- Generated by graphviz version 12.0.0 (20240704.0754)
 -->
<!-- Title: State Pages: 1 -->
<svg width="1535pt" height="209pt"
 viewBox="0.00 0.00 1535.41 208.67" xmlns="http://www.w3.org/2000/svg" xmlns:xlink="http://www.w3.org/1999/xlink">
<g id="graph0" class="graph" transform="scale(1 1) rotate(0) translate(4 204.67)">
<title>State</title>
<polygon fill="white" stroke="none" points="-4,4 -4,-204.67 1531.41,-204.67 1531.41,4 -4,4"/>
<!-- OFF -->
<g id="node1" class="node">
<title>OFF</title>
<ellipse fill="none" stroke="black" cx="31.73" cy="-67.88" rx="31.73" ry="31.73"/>
<text text-anchor="middle" x="31.73" y="-62.98" font-family="Times,serif" font-size="14.00">OFF</text>
</g>
<!-- STANDBY -->
<g id="node2" class="node">
<title>STANDBY</title>
<ellipse fill="none" stroke="black" cx="291.47" cy="-67.88" rx="60.01" ry="60.01"/>
<text text-anchor="middle" x="291.47" y="-62.98" font-family="Times,serif" font-size="14.00">STANDBY</text>
</g>
<!-- OFF&#45;&gt;STANDBY -->
<g id="edge1" class="edge">
<title>OFF&#45;&gt;STANDBY</title>
<path fill="none" stroke="black" d="M63.82,-67.88C102.22,-67.88 168.72,-67.88 219.79,-67.88"/>
<polygon fill="black" stroke="black" points="219.58,-71.38 229.58,-67.88 219.58,-64.38 219.58,-71.38"/>
<text text-anchor="middle" x="147.46" y="-71.38" font-family="Times,serif" font-size="14.00">Turn machine ON</text>
</g>
<!-- STANDBY&#45;&gt;OFF -->
<g id="edge9" class="edge">
<title>STANDBY&#45;&gt;OFF</title>
<path fill="none" stroke="black" d="M233.62,-50.73C226.88,-49.23 220.05,-47.96 213.46,-47.08 155.3,-39.37 138.94,-35.33 81.46,-47.08 78.06,-47.78 74.59,-48.72 71.17,-49.83"/>
<polygon fill="black" stroke="black" points="70.04,-46.51 61.87,-53.26 72.46,-53.08 70.04,-46.51"/>
<text text-anchor="middle" x="147.46" y="-50.38" font-family="Times,serif" font-size="14.00">Turn machine OFF</text>
</g>
<!-- FILL_WATER -->
<g id="node3" class="node">
<title>FILL_WATER</title>
<ellipse fill="none" stroke="black" cx="646.27" cy="-151.88" rx="48.79" ry="48.79"/>
<text text-anchor="middle" x="646.27" y="-155.38" font-family="Times,serif" font-size="14.00">FILL</text>
<text text-anchor="middle" x="646.27" y="-138.58" font-family="Times,serif" font-size="14.00">WATER</text>
</g>
<!-- STANDBY&#45;&gt;FILL_WATER -->
<g id="edge3" class="edge">
<title>STANDBY&#45;&gt;FILL_WATER</title>
<path fill="none" stroke="black" d="M350.33,-81.66C415.84,-97.26 521.95,-122.52 587.44,-138.11"/>
<polygon fill="black" stroke="black" points="586.38,-141.46 596.92,-140.37 588,-134.65 586.38,-141.46"/>
<text text-anchor="middle" x="474.48" y="-138.38" font-family="Times,serif" font-size="14.00">LED blinks, not enough water</text>
</g>
<!-- CHECK_PAD -->
<g id="node4" class="node">
<title>CHECK_PAD</title>
<ellipse fill="none" stroke="black" cx="877.85" cy="-112.88" rx="48.79" ry="48.79"/>
<text text-anchor="middle" x="877.85" y="-116.38" font-family="Times,serif" font-size="14.00">CHECK</text>
<text text-anchor="middle" x="877.85" y="-99.58" font-family="Times,serif" font-size="14.00">PAD</text>
</g>
<!-- STANDBY&#45;&gt;CHECK_PAD -->
<g id="edge2" class="edge">
<title>STANDBY&#45;&gt;CHECK_PAD</title>
<path fill="none" stroke="black" d="M351.69,-66.07C430.37,-64.39 573.61,-63.83 695.06,-77.08 736.9,-81.65 783.46,-90.9 818.98,-98.85"/>
<polygon fill="black" stroke="black" points="818.11,-102.24 828.64,-101.04 819.66,-95.41 818.11,-102.24"/>
<text text-anchor="middle" x="646.27" y="-80.38" font-family="Times,serif" font-size="14.00">LED is ON</text>
</g>
<!-- FILL_WATER&#45;&gt;CHECK_PAD -->
<g id="edge4" class="edge">
<title>FILL_WATER&#45;&gt;CHECK_PAD</title>
<path fill="none" stroke="black" d="M694.84,-143.8C730.7,-137.71 780.08,-129.32 818.36,-122.82"/>
<polygon fill="black" stroke="black" points="818.58,-126.33 827.85,-121.21 817.41,-119.43 818.58,-126.33"/>
<text text-anchor="middle" x="762.06" y="-143.38" font-family="Times,serif" font-size="14.00">Water is filled</text>
</g>
<!-- PLACE_PAD -->
<g id="node5" class="node">
<title>PLACE_PAD</title>
<ellipse fill="none" stroke="black" cx="1164.14" cy="-148.88" rx="45.96" ry="45.96"/>
<text text-anchor="middle" x="1164.14" y="-152.38" font-family="Times,serif" font-size="14.00">PLACE</text>
<text text-anchor="middle" x="1164.14" y="-135.58" font-family="Times,serif" font-size="14.00">PAD</text>
</g>
<!-- CHECK_PAD&#45;&gt;PLACE_PAD -->
<g id="edge5" class="edge">
<title>CHECK_PAD&#45;&gt;PLACE_PAD</title>
<path fill="none" stroke="black" d="M926.76,-118.95C976.59,-125.26 1054.54,-135.13 1107.17,-141.79"/>
<polygon fill="black" stroke="black" points="1106.47,-145.23 1116.83,-143.02 1107.35,-138.29 1106.47,-145.23"/>
<text text-anchor="middle" x="995.64" y="-137.38" font-family="Times,serif" font-size="14.00">No pad placed</text>
</g>
<!-- TASK_PREPARED -->
<g id="node6" class="node">
<title>TASK_PREPARED</title>
<ellipse fill="none" stroke="black" cx="1459.53" cy="-67.88" rx="67.88" ry="67.88"/>
<text text-anchor="middle" x="1459.53" y="-71.38" font-family="Times,serif" font-size="14.00">TASK</text>
<text text-anchor="middle" x="1459.53" y="-54.58" font-family="Times,serif" font-size="14.00">PREPARED</text>
</g>
<!-- CHECK_PAD&#45;&gt;TASK_PREPARED -->
<g id="edge7" class="edge">
<title>CHECK_PAD&#45;&gt;TASK_PREPARED</title>
<path fill="none" stroke="black" d="M925.49,-101.65C962.87,-93.2 1016.79,-82.21 1064.64,-77.08 1173.55,-65.4 1300.31,-64.73 1379.99,-65.87"/>
<polygon fill="black" stroke="black" points="1379.83,-69.37 1389.89,-66.03 1379.94,-62.37 1379.83,-69.37"/>
<text text-anchor="middle" x="1164.14" y="-80.38" font-family="Times,serif" font-size="14.00">Water is filled, pad is placed</text>
</g>
<!-- PLACE_PAD&#45;&gt;TASK_PREPARED -->
<g id="edge6" class="edge">
<title>PLACE_PAD&#45;&gt;TASK_PREPARED</title>
<path fill="none" stroke="black" d="M1208.75,-136.84C1254.62,-124.18 1327.67,-104.01 1382.95,-88.75"/>
<polygon fill="black" stroke="black" points="1383.59,-92.2 1392.3,-86.17 1381.73,-85.45 1383.59,-92.2"/>
<text text-anchor="middle" x="1327.64" y="-118.38" font-family="Times,serif" font-size="14.00">Pad is placed</text>
</g>
<!-- TASK_PREPARED&#45;&gt;STANDBY -->
<g id="edge8" class="edge">
<title>TASK_PREPARED&#45;&gt;STANDBY</title>
<path fill="none" stroke="black" d="M1393.15,-51.66C1334,-38.42 1244.28,-21.88 1165.14,-21.88 645.27,-21.88 645.27,-21.88 645.27,-21.88 546.04,-21.88 432.41,-40 361.54,-53.49"/>
<polygon fill="black" stroke="black" points="361.18,-50 352.02,-55.33 362.51,-56.87 361.18,-50"/>
</g>
</g>
</svg>
