<?xml version="1.0" encoding="UTF-8" standalone="no"?>
<!DOCTYPE svg PUBLIC "-//W3C//DTD SVG 1.1//EN"
 "http://www.w3.org/Graphics/SVG/1.1/DTD/svg11.dtd">
<!-- Generated by graphviz version 12.0.0 (20240704.0754)
 -->
<!-- Title: State Pages: 1 -->
<svg width="1107pt" height="188pt"
 viewBox="0.00 0.00 1106.80 187.75" xmlns="http://www.w3.org/2000/svg" xmlns:xlink="http://www.w3.org/1999/xlink">
<g id="graph0" class="graph" transform="scale(1 1) rotate(0) translate(4 183.75)">
<title>State</title>
<polygon fill="white" stroke="none" points="-4,4 -4,-183.75 1102.8,-183.75 1102.8,4 -4,4"/>
<!-- OFF -->
<g id="node1" class="node">
<title>OFF</title>
<ellipse fill="none" stroke="black" cx="31.73" cy="-60.01" rx="31.73" ry="31.73"/>
<text text-anchor="middle" x="31.73" y="-55.11" font-family="Times,serif" font-size="14.00">OFF</text>
</g>
<!-- STANDBY -->
<g id="node2" class="node">
<title>STANDBY</title>
<ellipse fill="none" stroke="black" cx="229.47" cy="-60.01" rx="60.01" ry="60.01"/>
<text text-anchor="middle" x="229.47" y="-55.11" font-family="Times,serif" font-size="14.00">STANDBY</text>
</g>
<!-- OFF&#45;&gt;STANDBY -->
<g id="edge1" class="edge">
<title>OFF&#45;&gt;STANDBY</title>
<path fill="none" stroke="black" d="M63.75,-60.01C89.01,-60.01 125.66,-60.01 157.98,-60.01"/>
<polygon fill="black" stroke="black" points="157.69,-63.51 167.69,-60.01 157.69,-56.51 157.69,-63.51"/>
<text text-anchor="middle" x="116.46" y="-63.51" font-family="Times,serif" font-size="14.00">Power On</text>
</g>
<!-- STANDBY&#45;&gt;OFF -->
<g id="edge6" class="edge">
<title>STANDBY&#45;&gt;OFF</title>
<path fill="none" stroke="black" d="M171.65,-42.93C144.25,-36.99 111.01,-33.17 81.46,-39.21 78.06,-39.91 74.59,-40.85 71.17,-41.95"/>
<polygon fill="black" stroke="black" points="70.04,-38.64 61.87,-45.39 72.46,-45.21 70.04,-38.64"/>
<text text-anchor="middle" x="116.46" y="-42.51" font-family="Times,serif" font-size="14.00">Power Off</text>
</g>
<!-- WATER_FILLED -->
<g id="node3" class="node">
<title>WATER_FILLED</title>
<ellipse fill="none" stroke="black" cx="474.69" cy="-124.01" rx="50.2" ry="50.2"/>
<text text-anchor="middle" x="474.69" y="-127.51" font-family="Times,serif" font-size="14.00">WATER</text>
<text text-anchor="middle" x="474.69" y="-110.71" font-family="Times,serif" font-size="14.00">FILLED</text>
</g>
<!-- STANDBY&#45;&gt;WATER_FILLED -->
<g id="edge2" class="edge">
<title>STANDBY&#45;&gt;WATER_FILLED</title>
<path fill="none" stroke="black" d="M287.8,-75.1C326.02,-85.15 376.13,-98.34 414.68,-108.49"/>
<polygon fill="black" stroke="black" points="413.72,-111.85 424.28,-111.01 415.5,-105.08 413.72,-111.85"/>
<text text-anchor="middle" x="356.98" y="-108.51" font-family="Times,serif" font-size="14.00">Enough water</text>
</g>
<!-- POD_PLACED -->
<g id="node4" class="node">
<title>POD_PLACED</title>
<ellipse fill="none" stroke="black" cx="745.63" cy="-126.01" rx="53.74" ry="53.74"/>
<text text-anchor="middle" x="745.63" y="-129.51" font-family="Times,serif" font-size="14.00">POD</text>
<text text-anchor="middle" x="745.63" y="-112.71" font-family="Times,serif" font-size="14.00">PLACED</text>
</g>
<!-- WATER_FILLED&#45;&gt;POD_PLACED -->
<g id="edge3" class="edge">
<title>WATER_FILLED&#45;&gt;POD_PLACED</title>
<path fill="none" stroke="black" d="M525.33,-124.38C568.94,-124.7 632.66,-125.18 680.19,-125.53"/>
<polygon fill="black" stroke="black" points="680.06,-129.03 690.08,-125.61 680.11,-122.03 680.06,-129.03"/>
<text text-anchor="middle" x="608.39" y="-128.51" font-family="Times,serif" font-size="14.00">Pod is placed</text>
</g>
<!-- READY -->
<g id="node5" class="node">
<title>READY</title>
<ellipse fill="none" stroke="black" cx="1052.59" cy="-60.01" rx="46.22" ry="46.22"/>
<text text-anchor="middle" x="1052.59" y="-55.11" font-family="Times,serif" font-size="14.00">READY</text>
</g>
<!-- POD_PLACED&#45;&gt;READY -->
<g id="edge4" class="edge">
<title>POD_PLACED&#45;&gt;READY</title>
<path fill="none" stroke="black" d="M798.36,-114.82C853.21,-102.94 939.54,-84.26 995.86,-72.07"/>
<polygon fill="black" stroke="black" points="996.54,-75.51 1005.57,-69.97 995.06,-68.66 996.54,-75.51"/>
<text text-anchor="middle" x="902.87" y="-113.51" font-family="Times,serif" font-size="14.00">Amount of cups choosen</text>
</g>
<!-- READY&#45;&gt;STANDBY -->
<g id="edge5" class="edge">
<title>READY&#45;&gt;STANDBY</title>
<path fill="none" stroke="black" d="M1006.15,-60.01C870.19,-60.01 465.8,-60.01 301.28,-60.01"/>
<polygon fill="black" stroke="black" points="301.37,-56.51 291.37,-60.01 301.37,-63.51 301.37,-56.51"/>
<text text-anchor="middle" x="608.39" y="-63.51" font-family="Times,serif" font-size="14.00">Preparing finished</text>
</g>
</g>
</svg>
