<svg xmlns="http://www.w3.org/2000/svg" xmlns:xlink="http://www.w3.org/1999/xlink" contentStyleType="text/css" height="470px" preserveAspectRatio="none" style="width:598px;height:470px;background:#FFFFFF;" version="1.1" viewBox="0 0 598 470" width="598px" zoomAndPan="magnify"><defs/><g><rect fill="#FF0000" height="358.5938" style="stroke:#181818;stroke-width:1.0;" width="10" x="172.1099" y="67.4297"/><rect fill="#0000FF" height="87.3984" style="stroke:#181818;stroke-width:1.0;" width="10" x="274.7407" y="96.5625"/><rect fill="#0000FF" height="58.2656" style="stroke:#181818;stroke-width:1.0;" width="10" x="496.7993" y="271.3594"/><rect fill="#0000FF" height="29.1328" style="stroke:#181818;stroke-width:1.0;" width="10" x="560.8784" y="358.7578"/><line style="stroke:#181818;stroke-width:0.5;stroke-dasharray:5.0,5.0;" x1="27" x2="27" y1="36.2969" y2="435.0234"/><line style="stroke:#181818;stroke-width:0.5;stroke-dasharray:5.0,5.0;" x1="176.5234" x2="176.5234" y1="36.2969" y2="435.0234"/><line style="stroke:#181818;stroke-width:0.5;stroke-dasharray:5.0,5.0;" x1="278.7974" x2="278.7974" y1="36.2969" y2="435.0234"/><line style="stroke:#181818;stroke-width:0.5;stroke-dasharray:5.0,5.0;" x1="404.8315" x2="404.8315" y1="36.2969" y2="435.0234"/><line style="stroke:#181818;stroke-width:0.5;stroke-dasharray:5.0,5.0;" x1="501.6401" x2="501.6401" y1="36.2969" y2="435.0234"/><line style="stroke:#181818;stroke-width:0.5;stroke-dasharray:5.0,5.0;" x1="564.9585" x2="564.9585" y1="36.2969" y2="435.0234"/><rect fill="#E2E2F0" height="30.2969" rx="2.5" ry="2.5" style="stroke:#181818;stroke-width:0.5;" width="45.9102" x="5" y="5"/><text fill="#000000" font-family="sans-serif" font-size="14" lengthAdjust="spacing" textLength="31.9102" x="12" y="24.9951">User</text><rect fill="#E2E2F0" height="30.2969" rx="2.5" ry="2.5" style="stroke:#181818;stroke-width:0.5;" width="45.9102" x="5" y="434.0234"/><text fill="#000000" font-family="sans-serif" font-size="14" lengthAdjust="spacing" textLength="31.9102" x="12" y="454.0186">User</text><rect fill="#E2E2F0" height="30.2969" rx="2.5" ry="2.5" style="stroke:#181818;stroke-width:0.5;" width="83.1729" x="135.5234" y="5"/><text fill="#000000" font-family="sans-serif" font-size="14" lengthAdjust="spacing" textLength="69.1729" x="142.5234" y="24.9951">Controller</text><rect fill="#E2E2F0" height="30.2969" rx="2.5" ry="2.5" style="stroke:#181818;stroke-width:0.5;" width="83.1729" x="135.5234" y="434.0234"/><text fill="#000000" font-family="sans-serif" font-size="14" lengthAdjust="spacing" textLength="69.1729" x="142.5234" y="454.0186">Controller</text><rect fill="#E2E2F0" height="30.2969" rx="2.5" ry="2.5" style="stroke:#181818;stroke-width:0.5;" width="71.8867" x="243.7974" y="5"/><text fill="#000000" font-family="sans-serif" font-size="14" lengthAdjust="spacing" textLength="57.8867" x="250.7974" y="24.9951">Standby</text><rect fill="#E2E2F0" height="30.2969" rx="2.5" ry="2.5" style="stroke:#181818;stroke-width:0.5;" width="71.8867" x="243.7974" y="434.0234"/><text fill="#000000" font-family="sans-serif" font-size="14" lengthAdjust="spacing" textLength="57.8867" x="250.7974" y="454.0186">Standby</text><rect fill="#E2E2F0" height="30.2969" rx="2.5" ry="2.5" style="stroke:#181818;stroke-width:0.5;" width="118.8086" x="345.8315" y="5"/><text fill="#000000" font-family="sans-serif" font-size="14" lengthAdjust="spacing" textLength="104.8086" x="352.8315" y="24.9951">Waterreservoir</text><rect fill="#E2E2F0" height="30.2969" rx="2.5" ry="2.5" style="stroke:#181818;stroke-width:0.5;" width="118.8086" x="345.8315" y="434.0234"/><text fill="#000000" font-family="sans-serif" font-size="14" lengthAdjust="spacing" textLength="104.8086" x="352.8315" y="454.0186">Waterreservoir</text><rect fill="#E2E2F0" height="30.2969" rx="2.5" ry="2.5" style="stroke:#181818;stroke-width:0.5;" width="54.3184" x="474.6401" y="5"/><text fill="#000000" font-family="sans-serif" font-size="14" lengthAdjust="spacing" textLength="40.3184" x="481.6401" y="24.9951">Boiler</text><rect fill="#E2E2F0" height="30.2969" rx="2.5" ry="2.5" style="stroke:#181818;stroke-width:0.5;" width="54.3184" x="474.6401" y="434.0234"/><text fill="#000000" font-family="sans-serif" font-size="14" lengthAdjust="spacing" textLength="40.3184" x="481.6401" y="454.0186">Boiler</text><rect fill="#E2E2F0" height="30.2969" rx="2.5" ry="2.5" style="stroke:#181818;stroke-width:0.5;" width="53.8398" x="538.9585" y="5"/><text fill="#000000" font-family="sans-serif" font-size="14" lengthAdjust="spacing" textLength="39.8398" x="545.9585" y="24.9951">Pump</text><rect fill="#E2E2F0" height="30.2969" rx="2.5" ry="2.5" style="stroke:#181818;stroke-width:0.5;" width="53.8398" x="538.9585" y="434.0234"/><text fill="#000000" font-family="sans-serif" font-size="14" lengthAdjust="spacing" textLength="39.8398" x="545.9585" y="454.0186">Pump</text><rect fill="#FF0000" height="358.5938" style="stroke:#181818;stroke-width:1.0;" width="10" x="172.1099" y="67.4297"/><rect fill="#0000FF" height="87.3984" style="stroke:#181818;stroke-width:1.0;" width="10" x="274.7407" y="96.5625"/><rect fill="#0000FF" height="58.2656" style="stroke:#181818;stroke-width:1.0;" width="10" x="496.7993" y="271.3594"/><rect fill="#0000FF" height="29.1328" style="stroke:#181818;stroke-width:1.0;" width="10" x="560.8784" y="358.7578"/><polygon fill="#181818" points="160.1099,63.4297,170.1099,67.4297,160.1099,71.4297,164.1099,67.4297" style="stroke:#181818;stroke-width:1.0;"/><line style="stroke:#181818;stroke-width:1.0;" x1="27.9551" x2="166.1099" y1="67.4297" y2="67.4297"/><text fill="#000000" font-family="sans-serif" font-size="13" lengthAdjust="spacing" textLength="52.3809" x="34.9551" y="62.3638">Start up</text><polygon fill="#181818" points="262.7407,92.5625,272.7407,96.5625,262.7407,100.5625,266.7407,96.5625" style="stroke:#181818;stroke-width:1.0;"/><line style="stroke:#181818;stroke-width:1.0;" x1="182.1099" x2="268.7407" y1="96.5625" y2="96.5625"/><text fill="#000000" font-family="sans-serif" font-size="13" lengthAdjust="spacing" textLength="52.3809" x="189.1099" y="91.4966">Start up</text><polygon fill="#181818" points="193.1099,121.6953,183.1099,125.6953,193.1099,129.6953,189.1099,125.6953" style="stroke:#181818;stroke-width:1.0;"/><line style="stroke:#181818;stroke-width:1.0;stroke-dasharray:2.0,2.0;" x1="187.1099" x2="273.7407" y1="125.6953" y2="125.6953"/><text fill="#000000" font-family="sans-serif" font-size="13" lengthAdjust="spacing" textLength="68.6309" x="199.1099" y="120.6294">Started up</text><polygon fill="#181818" points="38.9551,150.8281,28.9551,154.8281,38.9551,158.8281,34.9551,154.8281" style="stroke:#181818;stroke-width:1.0;"/><line style="stroke:#181818;stroke-width:1.0;stroke-dasharray:2.0,2.0;" x1="32.9551" x2="171.1099" y1="154.8281" y2="154.8281"/><text fill="#000000" font-family="sans-serif" font-size="13" lengthAdjust="spacing" textLength="78.9268" x="44.9551" y="149.7622">Led goes on</text><polygon fill="#181818" points="160.1099,179.9609,170.1099,183.9609,160.1099,187.9609,164.1099,183.9609" style="stroke:#181818;stroke-width:1.0;"/><line style="stroke:#181818;stroke-width:1.0;" x1="27.9551" x2="166.1099" y1="183.9609" y2="183.9609"/><text fill="#000000" font-family="sans-serif" font-size="13" lengthAdjust="spacing" textLength="102.2925" x="34.9551" y="178.895">Amount of cups</text><polygon fill="#181818" points="393.2358,209.0938,403.2358,213.0938,393.2358,217.0938,397.2358,213.0938" style="stroke:#181818;stroke-width:1.0;"/><line style="stroke:#181818;stroke-width:1.0;" x1="182.1099" x2="399.2358" y1="213.0938" y2="213.0938"/><text fill="#000000" font-family="sans-serif" font-size="13" lengthAdjust="spacing" textLength="199.126" x="189.1099" y="208.0278">&lt;Request x amount of water&gt;</text><polygon fill="#181818" points="193.1099,238.2266,183.1099,242.2266,193.1099,246.2266,189.1099,242.2266" style="stroke:#181818;stroke-width:1.0;"/><line style="stroke:#181818;stroke-width:1.0;stroke-dasharray:2.0,2.0;" x1="187.1099" x2="404.2358" y1="242.2266" y2="242.2266"/><text fill="#000000" font-family="sans-serif" font-size="13" lengthAdjust="spacing" textLength="23.48" x="199.1099" y="237.1606">oke</text><polygon fill="#181818" points="484.7993,267.3594,494.7993,271.3594,484.7993,275.3594,488.7993,271.3594" style="stroke:#181818;stroke-width:1.0;"/><line style="stroke:#181818;stroke-width:1.0;" x1="182.1099" x2="490.7993" y1="271.3594" y2="271.3594"/><text fill="#000000" font-family="sans-serif" font-size="13" lengthAdjust="spacing" textLength="175.4111" x="189.1099" y="266.2935">Heat up x amount of water</text><polygon fill="#181818" points="38.9551,296.4922,28.9551,300.4922,38.9551,304.4922,34.9551,300.4922" style="stroke:#181818;stroke-width:1.0;"/><line style="stroke:#181818;stroke-width:1.0;stroke-dasharray:2.0,2.0;" x1="32.9551" x2="171.1099" y1="300.4922" y2="300.4922"/><text fill="#000000" font-family="sans-serif" font-size="13" lengthAdjust="spacing" textLength="120.1548" x="44.9551" y="295.4263">Led starts blinking</text><polygon fill="#181818" points="193.1099,325.625,183.1099,329.625,193.1099,333.625,189.1099,329.625" style="stroke:#181818;stroke-width:1.0;"/><line style="stroke:#181818;stroke-width:1.0;stroke-dasharray:2.0,2.0;" x1="187.1099" x2="500.7993" y1="329.625" y2="329.625"/><text fill="#000000" font-family="sans-serif" font-size="13" lengthAdjust="spacing" textLength="170.7139" x="199.1099" y="324.5591">X amount of water heated</text><polygon fill="#181818" points="548.8784,354.7578,558.8784,358.7578,548.8784,362.7578,552.8784,358.7578" style="stroke:#181818;stroke-width:1.0;"/><line style="stroke:#181818;stroke-width:1.0;" x1="182.1099" x2="554.8784" y1="358.7578" y2="358.7578"/><text fill="#000000" font-family="sans-serif" font-size="13" lengthAdjust="spacing" textLength="93.3994" x="189.1099" y="353.6919">Start pumping</text><polygon fill="#181818" points="193.1099,383.8906,183.1099,387.8906,193.1099,391.8906,189.1099,387.8906" style="stroke:#181818;stroke-width:1.0;"/><line style="stroke:#181818;stroke-width:1.0;stroke-dasharray:2.0,2.0;" x1="187.1099" x2="564.8784" y1="387.8906" y2="387.8906"/><text fill="#000000" font-family="sans-serif" font-size="13" lengthAdjust="spacing" textLength="34.2012" x="199.1099" y="382.8247">Done</text><polygon fill="#181818" points="38.9551,413.0234,28.9551,417.0234,38.9551,421.0234,34.9551,417.0234" style="stroke:#181818;stroke-width:1.0;"/><line style="stroke:#181818;stroke-width:1.0;stroke-dasharray:2.0,2.0;" x1="32.9551" x2="171.1099" y1="417.0234" y2="417.0234"/><text fill="#000000" font-family="sans-serif" font-size="13" lengthAdjust="spacing" textLength="117.9521" x="44.9551" y="411.9575">Led stops blinking</text><!--SRC=[VL7BRW8n3BpxAonnvWTGXLGAKWySAX22QzXrQSGIftdGzk_hB4kJ1jfBb6XcFEE9LIxeHbjb0cuyEO1qudYAJso2uwuZDy5r41f6Yw2QeCygK07ZQBMOG_4MiGXCk__AoYmS81pDbfi5N5_ZUuxK9cKvMLWftmINWXsOFBA1-vaVJnnbANx59beFBTK9giXRWPmZcNHcBVg75Rr7yW4_KVsC-aYaAVpcteJd8q4rVSQwXvv9zKNU3Cq5NQX3FtykxrD17lUTDaTj3WY3hCwogutmJI9GMnPoaLQ9N-B9Nl_FobrCSiO43WdxQ-qwPqEbGoB1VykmpRjy0m00]--></g></svg>