<svg xmlns="http://www.w3.org/2000/svg" xmlns:xlink="http://www.w3.org/1999/xlink" contentStyleType="text/css" height="208px" preserveAspectRatio="none" style="width:280px;height:208px;background:#FFFFFF;" version="1.1" viewBox="0 0 280 208" width="280px" zoomAndPan="magnify"><defs/><g><rect fill="#FF0000" height="96.3984" style="stroke:#181818;stroke-width:1.0;" width="10" x="130.8818" y="67.4297"/><rect fill="#0000FF" height="67.2656" style="stroke:#181818;stroke-width:1.0;" width="10" x="233.5127" y="96.5625"/><line style="stroke:#181818;stroke-width:0.5;stroke-dasharray:5.0,5.0;" x1="27" x2="27" y1="36.2969" y2="172.8281"/><line style="stroke:#181818;stroke-width:0.5;stroke-dasharray:5.0,5.0;" x1="135.2954" x2="135.2954" y1="36.2969" y2="172.8281"/><line style="stroke:#181818;stroke-width:0.5;stroke-dasharray:5.0,5.0;" x1="237.5693" x2="237.5693" y1="36.2969" y2="172.8281"/><rect fill="#E2E2F0" height="30.2969" rx="2.5" ry="2.5" style="stroke:#181818;stroke-width:0.5;" width="45.9102" x="5" y="5"/><text fill="#000000" font-family="sans-serif" font-size="14" lengthAdjust="spacing" textLength="31.9102" x="12" y="24.9951">User</text><rect fill="#E2E2F0" height="30.2969" rx="2.5" ry="2.5" style="stroke:#181818;stroke-width:0.5;" width="45.9102" x="5" y="171.8281"/><text fill="#000000" font-family="sans-serif" font-size="14" lengthAdjust="spacing" textLength="31.9102" x="12" y="191.8232">User</text><rect fill="#E2E2F0" height="30.2969" rx="2.5" ry="2.5" style="stroke:#181818;stroke-width:0.5;" width="83.1729" x="94.2954" y="5"/><text fill="#000000" font-family="sans-serif" font-size="14" lengthAdjust="spacing" textLength="69.1729" x="101.2954" y="24.9951">Controller</text><rect fill="#E2E2F0" height="30.2969" rx="2.5" ry="2.5" style="stroke:#181818;stroke-width:0.5;" width="83.1729" x="94.2954" y="171.8281"/><text fill="#000000" font-family="sans-serif" font-size="14" lengthAdjust="spacing" textLength="69.1729" x="101.2954" y="191.8232">Controller</text><rect fill="#E2E2F0" height="30.2969" rx="2.5" ry="2.5" style="stroke:#181818;stroke-width:0.5;" width="71.8867" x="202.5693" y="5"/><text fill="#000000" font-family="sans-serif" font-size="14" lengthAdjust="spacing" textLength="57.8867" x="209.5693" y="24.9951">Standby</text><rect fill="#E2E2F0" height="30.2969" rx="2.5" ry="2.5" style="stroke:#181818;stroke-width:0.5;" width="71.8867" x="202.5693" y="171.8281"/><text fill="#000000" font-family="sans-serif" font-size="14" lengthAdjust="spacing" textLength="57.8867" x="209.5693" y="191.8232">Standby</text><rect fill="#FF0000" height="96.3984" style="stroke:#181818;stroke-width:1.0;" width="10" x="130.8818" y="67.4297"/><rect fill="#0000FF" height="67.2656" style="stroke:#181818;stroke-width:1.0;" width="10" x="233.5127" y="96.5625"/><polygon fill="#181818" points="118.8818,63.4297,128.8818,67.4297,118.8818,71.4297,122.8818,67.4297" style="stroke:#181818;stroke-width:1.0;"/><line style="stroke:#181818;stroke-width:1.0;" x1="27.9551" x2="124.8818" y1="67.4297" y2="67.4297"/><text fill="#000000" font-family="sans-serif" font-size="13" lengthAdjust="spacing" textLength="52.3809" x="34.9551" y="62.3638">Start up</text><polygon fill="#181818" points="221.5127,92.5625,231.5127,96.5625,221.5127,100.5625,225.5127,96.5625" style="stroke:#181818;stroke-width:1.0;"/><line style="stroke:#181818;stroke-width:1.0;" x1="140.8818" x2="227.5127" y1="96.5625" y2="96.5625"/><text fill="#000000" font-family="sans-serif" font-size="13" lengthAdjust="spacing" textLength="52.3809" x="147.8818" y="91.4966">Start up</text><polygon fill="#181818" points="151.8818,121.6953,141.8818,125.6953,151.8818,129.6953,147.8818,125.6953" style="stroke:#181818;stroke-width:1.0;"/><line style="stroke:#181818;stroke-width:1.0;stroke-dasharray:2.0,2.0;" x1="145.8818" x2="232.5127" y1="125.6953" y2="125.6953"/><text fill="#000000" font-family="sans-serif" font-size="13" lengthAdjust="spacing" textLength="68.6309" x="157.8818" y="120.6294">Started up</text><polygon fill="#181818" points="38.9551,150.8281,28.9551,154.8281,38.9551,158.8281,34.9551,154.8281" style="stroke:#181818;stroke-width:1.0;"/><line style="stroke:#181818;stroke-width:1.0;stroke-dasharray:2.0,2.0;" x1="32.9551" x2="129.8818" y1="154.8281" y2="154.8281"/><text fill="#000000" font-family="sans-serif" font-size="13" lengthAdjust="spacing" textLength="78.9268" x="44.9551" y="149.7622">Led goes on</text><!--SRC=[AqWiAibCpYn8p2jH22rEBUBY0f4AkdOAplbv9KNvEJcfHLOAmIL0PGgb1GfSYSabcMM99Qb8qWhAGQukN4Xye6QWXhoKf4g4JeH6g9I2ifDFg2iNZAUBpSRK591EP9E1ga3kirBm0SgbvwSMA-Jd0G00]--></g></svg>